<?xml version="1.0" encoding="UTF-8" standalone="no"?>
<!-- Created with Inkscape (http://www.inkscape.org/) -->

<svg
   width="417.94653mm"
   height="384.46881mm"
   viewBox="0 0 417.94654 384.46882"
   version="1.1"
   id="svg5"
   inkscape:version="1.1.2 (b8e25be833, 2022-02-05)"
   sodipodi:docname="mmbmlogo2.svg"
   xmlns:inkscape="http://www.inkscape.org/namespaces/inkscape"
   xmlns:sodipodi="http://sodipodi.sourceforge.net/DTD/sodipodi-0.dtd"
   xmlns="http://www.w3.org/2000/svg"
   xmlns:svg="http://www.w3.org/2000/svg">
  <sodipodi:namedview
     id="namedview7"
     pagecolor="#505050"
     bordercolor="#eeeeee"
     borderopacity="1"
     inkscape:pageshadow="0"
     inkscape:pageopacity="0"
     inkscape:pagecheckerboard="0"
     inkscape:document-units="mm"
     showgrid="true"
     inkscape:zoom="0.5499273"
     inkscape:cx="845.56631"
     inkscape:cy="608.26222"
     inkscape:window-width="2115"
     inkscape:window-height="1082"
     inkscape:window-x="2753"
     inkscape:window-y="148"
     inkscape:window-maximized="0"
     inkscape:current-layer="layer1"
     fit-margin-top="0"
     fit-margin-left="0"
     fit-margin-right="0"
     fit-margin-bottom="0">
    <sodipodi:guide
       position="100.57122,351.23909"
       orientation="0,793.70079"
       id="guide950" />
    <sodipodi:guide
       position="310.57122,351.23909"
       orientation="1122.5197,0"
       id="guide952" />
    <sodipodi:guide
       position="310.57122,54.239079"
       orientation="0,-793.70079"
       id="guide954" />
    <sodipodi:guide
       position="100.57122,54.239079"
       orientation="-1122.5197,0"
       id="guide956" />
    <inkscape:grid
       type="xygrid"
       id="grid958"
       color="#000000"
       opacity="0.1254902"
       empcolor="#000000"
       empopacity="0.25098039"
       dotted="false"
       originx="100.57122"
       originy="33.229732" />
  </sodipodi:namedview>
  <defs
     id="defs2" />
  <g
     inkscape:label="Layer 1"
     inkscape:groupmode="layer"
     id="layer1"
     transform="translate(100.57121,33.229734)">
    <g
       id="g14703"
       style="fill:#dc143c"
       transform="matrix(3.1771788,0,0,3.1771788,-236.01068,-346.18162)">
      <path
         id="path846"
         style="fill:#dc143c;stroke-width:0.20136"
         d="m 97.207194,98.499929 a 50,50 0 0 0 -50.000047,50.000051 50,50 0 0 0 21.719087,41.22746 l 0.09198,-2.20762 v -47.29531 l -0.203605,-4.6886 c -0.475667,-1.63086 -1.223467,-2.99003 -2.242756,-4.07727 -0.951338,-1.08724 -2.140217,-1.73297 -3.567224,-1.93683 -1.359053,-0.20386 -2.718218,-0.33978 -4.077271,-0.40773 -1.359053,-0.0679 -2.378168,-0.13565 -3.057694,-0.2036 v -1.63091 h 37.713459 l 17.124027,44.23709 15.3913,-44.23709 H 142.4804 A 50,50 0 0 0 97.207194,98.499929 Z M 142.4804,127.27957 a 50,50 0 0 1 4.72684,21.22041 50,50 0 0 1 -22.28391,41.59487 l -0.14986,3.43855 c -0.20386,2.3104 -0.64546,3.83932 -1.32498,4.5868 -0.67953,0.74748 -2.10639,1.2573 -4.28088,1.52911 l -4.68912,0.30541 v 1.63091 h 46.47985 v -1.63091 l -5.09633,-0.40773 c -2.10653,-0.27181 -3.5334,-0.81496 -4.28088,-1.63039 -0.67952,-0.88339 -1.12164,-2.41232 -1.32549,-4.5868 l -0.20361,-4.68912 v -48.31436 l 0.20361,-4.68861 c 0.20385,-2.17448 0.71367,-3.70341 1.5291,-4.5868 0.81543,-0.88338 2.27666,-1.4609 4.3832,-1.73271 2.17448,-0.27181 3.60135,-0.40772 4.28087,-0.40772 h 2.34404 v -1.63091 z m -17.55707,62.81528 0.0543,-1.25005 v -37.81578 c 0,-2.10653 0.0677,-4.58687 0.20361,-7.44089 0.20385,-2.92196 0.40799,-5.63977 0.61184,-8.15402 h -0.61184 l -4.17908,13.14855 -16.81913,49.41249 a 50,50 0 0 0 20.74034,-7.9003 z m -20.74034,7.9003 a 50,50 0 0 1 -6.975796,0.50488 50,50 0 0 1 -1.838132,-0.0687 l 1.272276,3.15433 h 6.319512 z m -8.813928,0.43615 -23.598557,-58.51271 h -0.611849 v 47.60123 l 0.15503,3.72019 a 50,50 0 0 0 24.055376,7.19129 z m -24.055376,-7.19129 a 50,50 0 0 1 -2.387452,-1.51257 l -0.111623,2.68458 c -0.203856,2.10654 -0.815739,3.73754 -1.835028,4.89273 -0.951338,1.15519 -2.276136,1.86863 -3.974952,2.14044 -1.698818,0.20386 -3.160048,0.33977 -4.383196,0.40773 -1.155194,0 -2.24201,0.0339 -3.261299,0.1018 v 1.63091 H 84.71545 v -1.63091 l -7.134965,-0.50953 c -2.106533,-0.27181 -3.635463,-0.95139 -4.586801,-2.03864 -0.883383,-1.15519 -1.427049,-2.82004 -1.630908,-4.99453 z" />
      <text
         xml:space="preserve"
         style="font-style:normal;font-weight:normal;font-size:18.3781px;line-height:1.25;font-family:sans-serif;fill:#ffffff;fill-opacity:1;stroke:none;stroke-width:0.459455"
         x="41.695583"
         y="219.24919"
         id="text10538"><tspan
           sodipodi:role="line"
           id="tspan10536"
           style="font-style:normal;font-variant:normal;font-weight:normal;font-stretch:normal;font-family:'Berlin Sans FB';-inkscape-font-specification:'Berlin Sans FB';fill:#ffffff;stroke-width:0.459455"
           x="41.695583"
           y="219.24919">MMBN TRADING</tspan></text>
    </g>
  </g>
</svg>
