<?xml version="1.0" encoding="UTF-8" standalone="no"?>
<!-- Created with Inkscape (http://www.inkscape.org/) -->

<svg
   width="500"
   height="500"
   viewBox="0 0 132.29167 132.29167"
   version="1.1"
   id="svg5"
   inkscape:version="1.1.2 (b8e25be833, 2022-02-05)"
   sodipodi:docname="mmbn logo.svg"
   xmlns:inkscape="http://www.inkscape.org/namespaces/inkscape"
   xmlns:sodipodi="http://sodipodi.sourceforge.net/DTD/sodipodi-0.dtd"
   xmlns="http://www.w3.org/2000/svg"
   xmlns:svg="http://www.w3.org/2000/svg">
  <sodipodi:namedview
     id="namedview7"
     pagecolor="#505050"
     bordercolor="#eeeeee"
     borderopacity="1"
     inkscape:pageshadow="0"
     inkscape:pageopacity="0"
     inkscape:pagecheckerboard="0"
     inkscape:document-units="mm"
     showgrid="true"
     width="500mm"
     units="px"
     inkscape:snap-object-midpoints="true"
     inkscape:zoom="2"
     inkscape:cx="158.75"
     inkscape:cy="245.5"
     inkscape:window-width="2560"
     inkscape:window-height="1369"
     inkscape:window-x="-8"
     inkscape:window-y="-8"
     inkscape:window-maximized="1"
     inkscape:current-layer="text3268">
    <inkscape:grid
       type="xygrid"
       id="grid79912" />
  </sodipodi:namedview>
  <defs
     id="defs2" />
  <g
     inkscape:label="Layer 1"
     inkscape:groupmode="layer"
     id="layer1"
     style="display:inline">
    <g
       aria-label="MMBN
TRADING"
       id="text3268"
       style="font-size:10.5833px;line-height:1.25;fill:#6c0000;stroke-width:0.264583"
       inkscape:label="Main text">
      <g
         id="g67083"
         transform="matrix(1.2387624,0,0,1.2387624,34.478215,0.11169274)">
        <path
           d="m 31.672225,26.451029 h -1.974033 v -5.152124 l -1.426265,3.343454 h -1.369421 l -1.426265,-3.343454 v 5.152124 H 23.60556 v -7.694596 h 2.304761 l 1.731155,3.860217 1.725988,-3.860217 h 2.304761 z"
           style="font-weight:bold;-inkscape-font-specification:'sans-serif Bold'"
           id="path62150" />
        <path
           d="m 41.702589,26.451029 h -1.974033 v -5.152124 l -1.426265,3.343454 H 36.93287 l -1.426265,-3.343454 v 5.152124 h -1.870681 v -7.694596 h 2.304761 l 1.731155,3.860217 1.725988,-3.860217 h 2.304761 z"
           style="font-weight:bold;-inkscape-font-specification:'sans-serif Bold'"
           id="path62152" />
        <path
           d="m 50.249844,24.094591 q 0,0.558104 -0.227375,0.997352 -0.222208,0.439248 -0.614948,0.728635 -0.454751,0.341064 -1.002519,0.485757 -0.542601,0.144694 -1.379757,0.144694 h -3.358957 v -7.694596 h 2.986888 q 0.930173,0 1.359086,0.06201 0.434081,0.06201 0.857826,0.273884 0.439248,0.222208 0.651121,0.599445 0.21704,0.372069 0.21704,0.852658 0,0.558104 -0.294554,0.987017 -0.294555,0.423746 -0.831988,0.661456 v 0.04134 q 0.754473,0.149862 1.193721,0.620116 0.444416,0.470254 0.444416,1.24023 z m -2.542472,-3.162588 q 0,-0.191202 -0.09819,-0.382404 -0.09302,-0.191202 -0.335896,-0.284219 -0.21704,-0.08268 -0.542601,-0.08785 -0.320392,-0.01034 -0.904334,-0.01034 h -0.186035 v 1.627802 h 0.310058 q 0.470254,0 0.800982,-0.0155 0.330728,-0.0155 0.52193,-0.103352 0.268717,-0.118856 0.351399,-0.30489 0.08268,-0.191202 0.08268,-0.439249 z m 0.485757,3.131582 q 0,-0.366901 -0.144694,-0.563271 -0.139526,-0.201538 -0.480589,-0.299722 -0.232543,-0.06718 -0.640786,-0.07235 -0.408242,-0.0052 -0.852658,-0.0052 h -0.434081 v 1.91719 h 0.144694 q 0.837155,0 1.198889,-0.0052 0.361734,-0.0052 0.666624,-0.134358 0.310058,-0.129191 0.423745,-0.341064 0.118856,-0.21704 0.118856,-0.496092 z"
           style="font-weight:bold;-inkscape-font-specification:'sans-serif Bold'"
           id="path62154" />
        <path
           d="m 58.724753,26.451029 h -1.912022 l -3.26594,-5.281315 v 5.281315 h -1.819005 v -7.694596 h 2.371941 l 2.806021,4.407985 v -4.407985 h 1.819005 z"
           style="font-weight:bold;-inkscape-font-specification:'sans-serif Bold'"
           id="path62156" />
      </g>
      <g
         id="g67077"
         transform="translate(17.220235,66.566851)">
        <path
           d="m 29.625845,33.473834 h -2.402947 v 6.206319 H 25.23853 v -6.206319 h -2.402947 v -1.488277 h 6.790262 z"
           style="font-weight:bold;-inkscape-font-specification:'sans-serif Bold'"
           id="path62158" />
        <path
           d="m 35.134535,34.341995 q 0,-0.289387 -0.118855,-0.496092 -0.118856,-0.206705 -0.408243,-0.325561 -0.201537,-0.08268 -0.470254,-0.09819 -0.268717,-0.02067 -0.625283,-0.02067 H 32.7936 V 35.4737 h 0.60978 q 0.475422,0 0.795815,-0.04651 0.320392,-0.04651 0.537433,-0.211873 0.206705,-0.160197 0.299722,-0.351399 0.09819,-0.19637 0.09819,-0.52193 z m 3.095408,5.338158 H 35.806326 L 33.70827,36.858629 H 32.7936 v 2.821524 h -1.974033 v -7.694596 h 3.327951 q 0.682127,0 1.173052,0.07751 0.490924,0.07751 0.919837,0.335895 0.434081,0.258382 0.687294,0.671792 0.258382,0.408242 0.258382,1.028357 0,0.852659 -0.397907,1.390092 -0.39274,0.537433 -1.126543,0.893999 z"
           style="font-weight:bold;-inkscape-font-specification:'sans-serif Bold'"
           id="path62160" />
        <path
           d="m 46.208758,39.680153 h -2.051547 l -0.532266,-1.555455 h -2.85253 l -0.532266,1.555455 h -1.999871 l 2.842195,-7.694596 h 2.284091 z m -3.064402,-2.966217 -0.945676,-2.759513 -0.945676,2.759513 z"
           style="font-weight:bold;-inkscape-font-specification:'sans-serif Bold'"
           id="path62162" />
        <path
           d="m 54.585483,35.840607 q 0,1.074866 -0.490925,1.927524 -0.490924,0.847491 -1.24023,1.302242 -0.563272,0.341064 -1.235063,0.475422 -0.671792,0.134358 -1.591629,0.134358 h -2.713004 v -7.694596 h 2.790518 q 0.940508,0 1.622635,0.160197 0.682127,0.155028 1.147213,0.444415 0.795815,0.485757 1.250566,1.312578 0.459919,0.821652 0.459919,1.93786 z m -2.051548,-0.0155 q 0,-0.759641 -0.279052,-1.297075 -0.273884,-0.5426 -0.873329,-0.84749 -0.30489,-0.149861 -0.625283,-0.201538 -0.315225,-0.05684 -0.956011,-0.05684 h -0.501259 v 4.816228 h 0.501259 q 0.707965,0 1.038693,-0.06201 0.330728,-0.06718 0.645954,-0.237711 0.5426,-0.310057 0.795814,-0.82682 0.253214,-0.52193 0.253214,-1.286739 z"
           style="font-weight:bold;-inkscape-font-specification:'sans-serif Bold'"
           id="path62164" />
        <path
           d="m 59.153867,39.680153 h -1.869573 c 0,-7.694596 0,0 0,-7.694596 h 1.869573 c 0,7.694596 0,0 0,7.694596 z"
           style="font-weight:bold;-inkscape-font-specification:'sans-serif Bold';stroke-width:0.170423"
           id="path62166"
           sodipodi:nodetypes="ccccc" />
        <path
           d="m 68.873969,39.680153 h -1.912022 l -3.26594,-5.281314 v 5.281314 h -1.819005 v -7.694596 h 2.371941 l 2.806021,4.407986 v -4.407986 h 1.819005 z"
           style="font-weight:bold;-inkscape-font-specification:'sans-serif Bold'"
           id="path62168" />
        <path
           d="m 77.643433,39.240905 c -0.344508,0.134359 -0.800982,0.268717 -1.369421,0.403075 -0.568439,0.130913 -1.135155,0.19637 -1.700149,0.19637 -1.309132,0 -2.334045,-0.354844 -3.074738,-1.064531 -0.740693,-0.713133 -1.11104,-1.696704 -1.11104,-2.950715 0,-1.195445 0.373792,-2.158346 1.121375,-2.888704 0.747583,-0.733803 1.789721,-1.100704 3.126414,-1.100704 1.067973,-0.01188 0,0 2.934027,0.08677 l 0.04253,2.398862 H 77.39022 c -0.09646,-0.07235 -0.237711,-0.173977 -0.423746,-0.30489 -0.186035,-0.134358 -0.365179,-0.248046 -0.537433,-0.341063 -0.199815,-0.110243 -0.43408,-0.204982 -0.702797,-0.284219 -0.265272,-0.07924 -0.547769,-0.118856 -0.847491,-0.118856 -0.351399,0 -0.670069,0.05168 -0.956011,0.155029 -0.285942,0.103353 -0.542601,0.261827 -0.769976,0.475422 -0.217041,0.206705 -0.389295,0.470254 -0.516763,0.790647 -0.124023,0.316947 -0.186035,0.683849 -0.186035,1.100704 0,0.850936 0.225653,1.502057 0.676959,1.953363 0.451307,0.451306 1.117931,0.676959 1.999872,0.676959 0.07579,0 0.158474,-0.0017 0.248046,-0.0052 0.09302,-0.0035 0.177422,-0.0086 0.253214,-0.0155 v -1.508947 h -1.534785 v -1.452104 h 3.550159 z"
           style="font-weight:bold;-inkscape-font-specification:'sans-serif Bold'"
           id="path62170"
           sodipodi:nodetypes="ccscsccccccccssccsssccccccc" />
      </g>
      <g
         id="g76468">
        <path
           id="path71796"
           style="color:#000000;fill:#009a00;stroke-width:0.264583;stroke-linecap:round;stroke-linejoin:round;-inkscape-stroke:none"
           d="m 27.788443,64.916279 c -0.275917,1.59e-4 -0.499552,0.223794 -0.499711,0.499711 v 19.356443 c 1.87e-4,0.275905 0.223806,0.499524 0.499711,0.499711 h 81.163497 c 0.27592,-1.59e-4 0.49956,-0.223794 0.49972,-0.499711 1.2e-4,-0.27612 -0.2236,-0.500071 -0.49972,-0.500229 H 93.836615 v -7.21093 c -1.59e-4,-0.275917 -0.223794,-0.499551 -0.49971,-0.499711 -0.276119,-1.27e-4 -0.500069,0.223592 -0.500229,0.499711 v 7.21093 H 70.811148 v 9.779248 c 0,0.196202 -0.319079,0.287116 -0.515264,0.284535 -0.187325,-0.0025 -0.484676,-0.09719 -0.484676,-0.284535 V 84.272204 H 49.238303 v -6.898288 c 1.25e-4,-0.276118 -0.223592,-0.500067 -0.49971,-0.500227 -0.276321,-1.27e-4 -0.500355,0.223906 -0.50023,0.500227 v 6.898288 H 28.288671 V 65.41599 c -1.6e-4,-0.276119 -0.224109,-0.499837 -0.500228,-0.499711 z"
           sodipodi:nodetypes="cccccccccccccsasccccccccc" />
      </g>
      <path
         id="path77086"
         style="fill:none;stroke:#009a00;stroke-width:1;stroke-linecap:round;stroke-linejoin:round;stroke-miterlimit:4;stroke-dasharray:none"
         d="m 50.795353,77.25834 a 2.06243,2.0828819 0 0 1 -2.06243,2.08288 2.06243,2.0828819 0 0 1 -2.06243,-2.08288 2.06243,2.0828819 0 0 1 2.06243,-2.08288 2.06243,2.0828819 0 0 1 2.06243,2.08288 z" />
      <path
         id="path77086-9"
         style="font-size:10.5833px;line-height:1.25;display:inline;fill:none;stroke:#009a00;stroke-width:1;stroke-linecap:round;stroke-linejoin:round;stroke-miterlimit:4;stroke-dasharray:none"
         d="m 72.406351,94.191673 c -10e-7,1.150343 -0.923382,2.08288 -2.06243,2.08288 -1.139048,0 -2.062429,-0.932537 -2.06243,-2.08288 10e-7,-1.150343 0.923382,-2.08288 2.06243,-2.08288 1.139048,0 2.062429,0.932537 2.06243,2.08288 z"
         sodipodi:nodetypes="sssss" />
      <path
         id="path77086-8"
         style="font-size:10.5833px;line-height:1.25;display:inline;fill:none;stroke:#009a00;stroke-width:1;stroke-linecap:round;stroke-linejoin:round;stroke-miterlimit:4;stroke-dasharray:none"
         d="m 95.502371,77.25834 a 2.06243,2.0828819 0 0 1 -2.06243,2.08288 2.06243,2.0828819 0 0 1 -2.06243,-2.08288 2.06243,2.0828819 0 0 1 2.06243,-2.08288 2.06243,2.0828819 0 0 1 2.06243,2.08288 z" />
      <path
         style="fill:none;stroke:#000000;stroke-width:1;stroke-linecap:round;stroke-linejoin:round;stroke-miterlimit:4;stroke-dasharray:none;stroke-opacity:1"
         d="m 107.91619,80.387189 4.19106,4.388398 -4.19106,4.388398"
         id="path77596"
         sodipodi:nodetypes="ccc" />
      <path
         style="fill:none;stroke:#000000;stroke-width:0.264583px;stroke-linecap:butt;stroke-linejoin:miter;stroke-opacity:1"
         d="m 10.583333,50.270833 v -27.78125 l 19.84375,-11.90625 19.84375,11.90625 v 27.78125 H 37.041667 v -15.875 H 23.8125 v 15.875 z"
         id="path79739"
         sodipodi:nodetypes="cccccccccc" />
      <path
         style="fill:none;stroke:#000000;stroke-width:0.264583px;stroke-linecap:butt;stroke-linejoin:miter;stroke-opacity:1"
         d="M 5.2916666,22.489583 30.427083,5.2916666 55.562499,22.489583"
         id="path80460" />
    </g>
  </g>
</svg>
