<?xml version="1.0" standalone="no"?>
<!DOCTYPE svg PUBLIC "-//W3C//DTD SVG 20010904//EN"
 "http://www.w3.org/TR/2001/REC-SVG-20010904/DTD/svg10.dtd">
<svg version="1.0" xmlns="http://www.w3.org/2000/svg"
 width="532.000000pt" height="532.000000pt" viewBox="0 0 532.000000 532.000000"
 preserveAspectRatio="xMidYMid meet">
<metadata>
Created by potrace 1.14, written by Peter Selinger 2001-2017
</metadata>
<g transform="translate(0.000000,532.000000) scale(0.100000,-0.100000)"
fill="#000000" stroke="none">
<path d="M2268 5006 c-1 -2 -59 -6 -128 -10 -69 -3 -136 -8 -150 -10 -14 -3
-43 -7 -65 -11 -770 -115 -1438 -650 -1729 -1385 -42 -107 -109 -341 -120
-420 -2 -19 -10 -71 -16 -115 -14 -91 -18 -382 -7 -496 4 -41 16 -122 28 -180
27 -140 26 -134 49 -214 12 -38 23 -77 25 -85 13 -58 131 -329 148 -341 5 -4
7 -11 3 -17 -3 -5 1 -12 9 -16 8 -3 15 -12 15 -21 0 -8 5 -15 11 -15 5 0 8 -4
4 -9 -3 -5 -1 -12 5 -16 6 -4 7 -11 4 -17 -4 -6 -3 -8 3 -5 5 3 18 -11 29 -31
10 -20 26 -42 34 -49 8 -6 12 -14 9 -18 -4 -3 3 -17 15 -30 11 -13 31 -35 44
-49 14 -17 18 -26 10 -27 -7 0 -3 -4 10 -9 12 -5 22 -15 22 -22 0 -7 9 -19 21
-26 11 -7 18 -19 15 -27 -3 -8 0 -17 6 -21 7 -4 8 -3 4 4 -4 7 -2 12 3 12 10
0 15 -14 12 -32 0 -5 5 -7 12 -5 6 1 11 -6 11 -15 -1 -10 1 -17 5 -16 20 2 31
-4 31 -17 0 -8 6 -15 14 -15 16 0 59 -54 50 -63 -3 -3 2 -4 12 -3 9 0 19 -5
22 -13 3 -8 0 -11 -7 -7 -6 4 -11 2 -11 -4 0 -7 8 -9 22 -5 17 6 20 4 14 -10
-6 -16 -4 -16 11 -4 11 9 14 10 9 1 -4 -7 -1 -15 8 -18 9 -3 16 -12 16 -20 0
-8 5 -14 11 -14 5 0 7 5 3 12 -4 7 -3 8 5 4 9 -6 9 -11 1 -21 -10 -12 -8 -13
10 -10 17 3 20 0 16 -12 -6 -14 -4 -14 11 -2 11 9 14 10 9 2 -4 -7 -2 -13 3
-13 6 0 11 -10 12 -22 0 -22 1 -22 9 -3 5 11 9 14 9 7 1 -7 5 -11 10 -7 5 3
12 1 15 -4 4 -5 1 -13 -5 -17 -8 -5 -9 -3 -4 6 5 9 4 11 -4 6 -16 -10 -4 -26
14 -19 8 3 15 0 15 -7 0 -7 7 -10 15 -6 12 4 14 0 11 -19 -3 -15 -1 -23 5 -20
5 4 7 11 4 16 -4 5 0 9 9 9 15 0 16 -16 3 -37 -4 -6 -3 -14 2 -17 16 -10 0
-121 -29 -198 -31 -84 -111 -154 -195 -172 -65 -14 -82 -16 -204 -21 -169 -8
-169 -8 -166 -45 3 -38 4 -39 44 -42 18 -1 35 -7 38 -12 4 -5 1 -6 -7 -1 -10
6 -12 3 -7 -11 7 -18 6 -18 -7 -1 -13 17 -14 16 -19 -3 -3 -11 -1 -17 4 -14 6
3 16 0 24 -6 8 -7 15 -9 15 -4 0 5 4 3 9 -4 7 -11 9 -11 14 1 4 11 0 15 -14
12 -11 -2 -17 0 -14 5 8 13 40 4 39 -12 -1 -8 8 -14 22 -14 13 0 24 4 24 9 0
5 -7 7 -15 3 -8 -3 -15 -2 -15 3 0 12 26 17 85 16 33 0 50 -4 50 -12 0 -18 18
-17 21 2 1 8 -5 19 -14 25 -10 5 -13 10 -8 10 17 0 45 -32 40 -45 -3 -7 -1
-16 5 -20 6 -3 9 0 5 8 -3 8 0 19 8 23 15 10 49 13 43 4 -2 -3 6 -12 18 -20
20 -12 21 -11 9 2 -10 13 -10 17 3 22 9 3 14 2 12 -2 -3 -4 5 -16 16 -27 l20
-20 -11 21 c-9 17 -8 21 6 21 9 0 28 -9 42 -21 14 -11 19 -14 13 -6 -14 16
-17 31 -5 29 4 -1 9 0 12 1 3 1 22 3 43 5 34 2 37 0 32 -19 -5 -17 -4 -18 4
-6 10 13 11 13 11 0 0 -13 1 -13 10 0 8 13 10 13 10 1 0 -12 2 -12 13 1 13 17
71 20 96 4 10 -7 12 -6 6 4 -6 10 -4 12 9 7 10 -4 20 -7 22 -7 3 0 2 -5 -2
-12 -5 -7 -3 -8 5 -4 7 5 10 14 7 22 -3 8 -1 14 4 14 6 0 11 -4 11 -10 1 -5 2
-14 3 -19 0 -5 4 -13 8 -17 4 -3 6 3 3 14 -2 12 1 25 7 28 7 4 8 2 4 -4 -4 -7
-2 -12 4 -12 6 0 8 -5 4 -12 -5 -7 -3 -8 5 -4 7 5 10 14 7 22 -3 8 -1 14 4 14
6 0 10 -9 10 -19 0 -11 4 -22 9 -25 5 -4 7 3 4 14 -4 16 -2 19 11 14 9 -3 13
-11 9 -17 -3 -6 -1 -7 6 -3 6 4 9 11 6 16 -3 5 -1 11 5 15 5 3 10 -3 10 -14 0
-11 4 -22 9 -25 5 -4 7 2 4 13 -3 10 1 22 8 26 8 5 10 4 5 -3 -4 -7 -2 -12 4
-12 6 0 8 -5 4 -12 -4 -7 -3 -8 5 -4 6 4 9 13 5 19 -3 7 4 1 16 -13 20 -23 20
-23 10 -2 -13 26 3 31 20 5 8 -12 10 -13 7 -3 -3 12 5 15 39 16 24 1 44 -2 44
-7 0 -4 -8 -6 -18 -4 -10 2 -24 0 -30 -4 -7 -4 14 -7 47 -7 32 1 57 4 54 9 -2
4 -9 4 -15 1 -7 -4 -8 -2 -4 4 4 7 3 12 -3 12 -5 0 -12 -6 -14 -12 -4 -10 -6
-10 -6 -1 -1 18 19 27 32 14 6 -6 17 -11 25 -11 12 0 12 3 1 18 -13 16 -13 16
7 -1 11 -9 24 -14 29 -10 4 5 5 2 1 -5 -4 -7 -11 -10 -16 -7 -5 3 -11 2 -14
-3 -7 -11 51 -8 61 3 5 4 2 5 -4 1 -7 -4 -13 -2 -13 3 0 17 18 13 30 -7 11
-16 11 -16 6 0 -3 10 0 20 6 24 6 4 8 3 5 -3 -4 -6 3 -19 14 -29 11 -10 20
-14 19 -9 -5 21 1 36 10 30 6 -4 7 -11 4 -17 -4 -7 -2 -8 4 -4 6 4 8 14 5 24
-6 15 -5 15 10 3 17 -13 31 -9 33 10 1 5 2 10 4 12 6 8 7 36 0 32 -5 -3 -10 0
-12 7 -3 7 -7 5 -11 -6 -4 -9 -3 -15 1 -12 4 3 8 -6 8 -19 0 -13 -4 -21 -9
-18 -4 3 -6 8 -3 11 3 3 -2 14 -11 25 -10 11 -12 17 -5 13 6 -4 12 -2 12 3 0
6 -4 11 -10 11 -5 0 -10 11 -10 25 0 23 -4 25 -47 26 -27 1 -66 2 -88 4 -22 2
-76 6 -121 9 -88 7 -184 31 -184 47 0 6 -4 8 -9 5 -11 -7 -51 27 -51 43 0 7
-5 9 -12 5 -7 -4 -4 3 7 16 l20 23 -21 -11 c-19 -10 -20 -8 -18 29 2 33 0 38
-12 28 -12 -10 -13 -9 -8 6 6 14 4 16 -6 10 -8 -5 -11 -4 -6 3 4 6 14 9 24 6
9 -3 6 2 -8 11 -14 9 -17 14 -8 11 10 -3 20 0 24 6 4 7 3 8 -4 4 -7 -4 -12 -2
-12 4 0 6 -5 8 -12 4 -10 -6 -10 -5 -1 8 17 20 4 31 -16 15 -14 -11 -14 -10
-2 5 7 10 17 15 22 12 5 -3 9 -1 9 4 0 15 25 21 41 10 11 -8 11 -9 -3 -5 -9 3
-22 -2 -30 -10 -11 -14 -11 -16 3 -11 9 4 22 1 29 -5 10 -9 11 -9 6 1 -4 6 -2
12 3 12 6 0 11 -4 11 -10 0 -5 5 -10 11 -10 5 0 7 5 3 12 -4 7 -3 8 5 4 6 -4
9 -12 6 -17 -4 -5 -1 -9 5 -9 6 0 8 -4 5 -10 -3 -6 1 -7 9 -4 9 3 16 2 16 -4
0 -5 11 -8 25 -6 22 2 25 -1 20 -19 -5 -19 -5 -20 5 -4 12 19 30 23 30 6 0 -5
-4 -7 -10 -4 -5 3 -10 1 -10 -4 0 -6 7 -11 16 -11 9 0 12 -5 8 -12 -6 -10 -4
-10 7 -1 19 19 29 16 30 -9 0 -22 1 -22 9 -3 6 13 9 15 9 5 1 -13 2 -13 11 0
8 12 10 12 10 -5 0 -15 2 -17 9 -6 7 11 10 10 12 -4 4 -18 5 -18 22 -1 20 20
22 14 6 -17 -12 -22 -12 -22 10 -3 21 19 22 19 39 2 16 -17 16 -18 -5 -7 -18
9 -22 9 -18 -2 7 -16 45 -20 45 -4 0 8 3 8 8 2 11 -15 42 -18 42 -4 0 7 3 9 6
6 4 -4 1 -13 -6 -22 -9 -11 -9 -15 -1 -15 7 0 9 -5 5 -12 -4 -7 -3 -8 5 -4 6
4 9 11 6 16 -6 9 25 23 33 15 3 -3 1 -5 -5 -5 -5 0 -10 -6 -10 -13 0 -8 6 -14
13 -14 7 0 11 4 8 8 -2 4 4 7 15 6 15 -1 17 -5 10 -13 -8 -9 -5 -11 10 -7 12
3 18 10 14 17 -4 6 1 5 10 -3 17 -14 24 -26 9 -17 -4 2 -14 0 -22 -6 -13 -8
-12 -9 1 -5 9 3 21 1 26 -4 5 -5 18 -7 28 -3 17 7 17 8 -1 21 -10 7 -13 13 -7
13 12 0 40 -30 35 -37 -2 -3 -1 -7 2 -10 3 -4 6 1 6 10 0 9 4 18 9 22 6 3 8
-3 6 -14 -3 -17 0 -18 25 -11 24 7 28 6 24 -8 -4 -13 -2 -12 11 3 17 20 17 20
11 -1 -5 -18 -2 -21 16 -20 13 1 26 -5 29 -13 4 -11 7 -9 11 7 4 12 2 20 -3
16 -5 -3 -6 2 -2 11 4 13 8 14 14 4 4 -7 6 -16 3 -20 -2 -4 4 -13 14 -20 15
-12 16 -12 5 2 -7 9 -10 19 -6 23 4 4 13 -4 21 -16 7 -13 11 -16 9 -8 -6 20
61 20 73 0 5 -8 12 -11 16 -7 4 4 18 0 32 -9 13 -9 21 -11 18 -5 -4 6 -2 11 4
11 7 0 10 7 6 15 -4 12 -2 13 13 6 10 -6 22 -7 26 -3 5 4 5 1 1 -6 -4 -7 -12
-10 -17 -7 -15 10 -10 -2 8 -16 11 -10 14 -10 9 -1 -4 6 -3 12 2 12 5 0 15
-19 22 -41 11 -31 22 -44 45 -52 16 -6 33 -11 36 -10 3 1 6 -4 6 -12 0 -11 -5
-10 -24 2 -14 10 -23 11 -23 4 0 -6 6 -11 14 -11 8 0 16 -6 19 -12 3 -10 8 -9
22 2 17 14 17 13 11 -10 -5 -17 -4 -21 2 -11 5 7 12 9 14 5 3 -5 3 -4 2 3 -2
7 2 15 8 19 6 4 8 3 5 -3 -4 -6 0 -14 9 -17 9 -3 12 -11 8 -18 -6 -10 -3 -9 9
0 9 8 21 11 26 8 5 -4 13 -2 16 4 5 8 11 8 20 0 9 -7 16 -6 25 5 13 16 35 21
26 6 -4 -5 2 -8 11 -6 10 2 26 4 36 4 10 1 15 6 12 11 -11 17 7 11 21 -7 11
-14 13 -15 9 -2 -3 9 1 22 10 29 8 7 15 17 15 22 0 6 -9 0 -19 -13 -20 -24
-20 -24 -18 -2 0 12 5 19 11 16 5 -4 7 3 3 16 -5 19 -3 20 11 9 12 -10 14 -10
8 -1 -12 21 -16 53 -5 53 5 0 9 8 9 18 0 14 -2 15 -10 2 -6 -10 -10 -11 -10
-2 0 6 -7 12 -15 12 -18 0 -19 5 -4 32 11 20 10 21 -52 13 -77 -9 -322 -15
-315 -7 3 3 -4 12 -15 20 -17 12 -18 16 -8 24 10 7 11 11 2 14 -7 3 -10 11 -7
19 3 7 0 16 -7 21 -8 5 -10 3 -4 -6 5 -9 4 -11 -4 -6 -9 6 -9 11 1 24 11 13
10 15 -5 9 -15 -6 -16 -4 -7 13 6 11 8 20 4 20 -3 0 0 8 7 18 7 9 9 14 5 10
-5 -4 -16 -2 -24 5 -13 10 -14 9 -7 -3 13 -21 15 -39 5 -45 -5 -3 -7 3 -5 15
2 11 0 22 -4 24 -4 3 -6 19 -5 35 1 17 -2 29 -7 26 -4 -3 -6 -13 -3 -23 5 -13
4 -14 -4 -3 -10 14 -4 54 7 46 4 -2 8 3 8 12 0 12 -5 10 -20 -8 -13 -15 -18
-18 -14 -7 3 10 -1 24 -9 33 -9 8 -12 15 -7 15 5 0 14 -5 20 -11 8 -8 13 -8
18 0 3 6 3 10 -2 9 -13 -4 -50 20 -57 37 -3 9 -2 13 4 10 19 -11 10 8 -12 26
-11 11 -16 19 -9 19 8 0 8 5 -1 19 -7 11 -15 18 -18 16 -4 -2 -7 2 -7 10 0 8
4 12 8 10 4 -3 9 2 12 10 4 10 1 12 -10 8 -12 -5 -14 -1 -9 15 5 14 1 25 -11
34 -19 14 -23 53 -9 78 7 12 6 13 -5 2 -18 -17 -34 -15 -19 3 10 12 8 14 -9
10 -12 -2 -21 0 -21 6 0 5 9 9 20 9 11 0 20 4 20 9 0 6 -9 8 -20 6 -26 -5 -35
12 -18 32 11 14 11 16 -4 10 -10 -3 -22 1 -30 11 -12 15 -11 16 5 3 14 -11 17
-11 17 2 0 8 -10 22 -22 31 -20 14 -21 16 -4 14 10 -2 21 4 23 12 4 13 3 13
-6 0 -9 -12 -11 -11 -11 8 0 12 -4 22 -10 22 -5 0 -7 -8 -3 -17 3 -10 4 -16 2
-13 -35 41 -43 54 -26 41 12 -10 17 -10 17 -2 0 7 4 9 10 6 5 -3 7 0 4 9 -3 8
-13 17 -21 20 -14 6 -14 4 -2 -11 12 -15 11 -15 -8 1 -13 10 -20 23 -17 28 3
4 -4 24 -16 43 -12 19 -17 35 -11 35 6 0 11 -4 11 -10 0 -5 4 -10 8 -10 4 0 8
8 8 19 0 10 -6 17 -12 14 -7 -2 -15 1 -19 6 -3 6 -10 9 -14 7 -4 -3 -8 1 -8 9
0 13 3 13 18 -1 11 -10 19 -12 24 -4 4 6 1 9 -7 8 -7 -2 -13 4 -13 12 0 8 -4
20 -8 27 -4 6 -1 14 5 17 7 3 3 3 -9 0 -24 -6 -32 10 -10 20 6 4 2 4 -11 2
-17 -3 -21 -1 -14 7 10 13 12 46 3 45 -22 -2 -31 4 -29 19 2 12 -2 17 -12 15
-8 -2 -12 0 -8 3 4 4 3 17 -3 28 -7 12 -7 17 -1 13 5 -3 13 1 16 10 3 8 2 12
-4 9 -6 -3 -11 -1 -11 4 -5 40 -20 71 -31 65 -7 -5 -9 -1 -5 9 4 11 1 17 -8
17 -9 0 -12 8 -9 22 6 29 -24 96 -45 101 -14 4 -13 5 2 6 9 0 17 9 16 19 0 10
-3 12 -6 5 -2 -7 -9 -13 -14 -13 -6 0 -5 9 1 21 10 18 10 19 -8 10 -14 -7 -19
-7 -19 4 0 8 4 12 8 9 4 -2 10 0 14 6 6 9 -8 15 -29 11 -5 -1 -4 5 4 13 10 13
10 19 0 31 -7 8 -17 12 -23 8 -5 -3 -7 -1 -4 5 10 15 -3 43 -16 35 -6 -3 -7
-1 -3 6 5 8 12 9 20 2 8 -7 12 -5 12 8 0 13 -6 16 -24 13 -22 -4 -23 -3 -13
15 5 11 8 23 4 26 -3 4 0 13 7 22 7 8 8 15 2 15 -5 0 -12 -7 -16 -15 -3 -8
-11 -15 -18 -15 -10 0 -10 2 1 9 10 7 11 12 1 27 -10 17 -11 17 -6 1 3 -10 2
-16 -3 -12 -5 3 -8 20 -7 39 3 28 0 33 -13 28 -13 -5 -14 -3 -5 9 15 19 14 46
-3 46 -9 0 -10 -4 -3 -11 5 -5 10 -14 10 -19 0 -5 -8 1 -18 13 -19 24 -18 70
1 70 6 0 7 3 4 6 -4 4 -14 1 -24 -7 -11 -9 -14 -10 -9 -1 4 6 3 12 -2 12 -6 0
-13 7 -16 16 -5 14 -4 15 8 5 11 -9 16 -9 22 0 5 8 3 9 -6 4 -9 -5 -11 -1 -6
16 3 13 3 18 0 12 -3 -7 -10 -13 -15 -13 -6 0 -7 5 -4 10 3 6 -1 10 -10 10
-12 0 -14 6 -9 26 5 18 3 25 -4 20 -6 -3 -14 -1 -18 5 -4 8 -3 9 4 5 7 -4 12
-3 12 3 0 5 -5 11 -12 13 -6 2 -12 14 -13 26 -1 11 2 19 6 16 4 -2 11 1 15 7
4 8 3 9 -4 5 -7 -4 -12 -2 -12 5 0 9 -3 9 -14 0 -11 -9 -16 -9 -22 0 -5 8 -3
9 6 4 8 -5 11 -3 8 6 -3 8 -1 22 4 31 6 13 5 16 -6 12 -18 -7 -30 12 -15 22 8
5 9 3 4 -6 -5 -9 -4 -11 4 -6 17 11 3 26 -17 19 -15 -6 -15 -5 -3 10 11 14 11
17 0 18 -8 1 -18 1 -22 0 -5 -1 -6 3 -2 9 3 6 10 8 15 5 16 -10 20 12 5 25 -8
7 -13 16 -10 20 3 4 -3 14 -13 21 -15 12 -16 12 -4 -2 10 -14 10 -18 -2 -22
-10 -4 -13 -1 -10 7 3 8 1 17 -5 20 -7 4 -7 15 -1 31 6 15 6 27 -1 30 -5 4 -6
12 -3 18 5 8 3 8 -7 0 -7 -7 -18 -13 -24 -13 -5 0 -3 5 5 10 13 8 13 11 1 19
-7 5 -11 15 -9 22 3 8 1 22 -4 32 -6 11 -5 17 3 17 7 0 9 3 6 6 -4 4 -13 1
-21 -5 -12 -10 -14 -8 -9 11 4 18 3 20 -6 8 -8 -12 -10 -10 -7 11 1 13 6 31
11 38 5 10 4 12 -3 7 -11 -7 -17 7 -12 29 1 6 -2 6 -6 2 -11 -10 -14 -37 -5
-37 4 0 8 -7 8 -16 0 -15 -2 -14 -13 1 -8 10 -11 21 -9 25 3 4 -2 13 -10 20
-8 6 -19 27 -25 45 -6 18 -17 36 -25 39 -17 6 -17 3 -17 -146 -1 -66 -4 -98
-12 -98 -8 0 -8 -3 0 -8 15 -10 15 -952 0 -952 -8 0 -8 -2 0 -8 15 -10 15
-464 0 -474 -8 -5 -8 -8 0 -8 7 0 10 -67 10 -208 -1 -115 1 -245 4 -290 3 -45
2 -82 -1 -82 -3 0 -23 13 -43 29 -23 19 -32 31 -24 34 10 4 10 8 -2 16 -12 8
-8 10 17 7 18 -2 30 1 27 5 -3 5 -12 9 -20 9 -9 0 -14 6 -11 13 2 6 9 12 15
12 5 0 14 4 19 9 4 5 3 6 -4 2 -6 -3 -15 -1 -18 5 -4 5 -14 8 -22 5 -8 -4 -11
-1 -8 5 4 6 13 8 20 5 7 -2 16 1 19 9 3 10 0 12 -12 9 -14 -5 -13 -3 2 10 11
9 14 16 7 16 -7 0 -9 5 -5 12 5 7 3 8 -6 3 -8 -5 -11 -3 -8 6 3 8 12 13 19 11
11 -3 11 -1 2 9 -10 10 -16 9 -29 -2 -16 -13 -16 -12 -4 8 8 12 17 20 21 17
12 -7 -1 48 -14 65 -8 10 -9 13 -1 8 7 -4 14 -1 17 7 3 8 -1 17 -10 20 -12 5
-13 9 -3 21 7 8 9 15 5 15 -5 0 0 10 11 22 l19 22 -30 -18 -30 -19 24 27 c14
14 21 26 17 26 -4 0 -2 9 4 20 8 15 8 18 -3 14 -8 -3 -20 2 -27 11 -8 10 -9
15 -1 15 6 0 11 -4 11 -10 0 -5 8 -6 17 -3 11 4 13 8 5 11 -7 2 -9 9 -6 14 4
6 3 9 -2 6 -5 -3 -15 1 -22 8 -12 13 -9 14 15 8 24 -6 26 -5 12 7 -9 8 -19 21
-22 31 -4 12 0 15 18 13 14 -1 22 2 19 6 -3 5 -12 9 -20 9 -8 0 -14 5 -14 11
0 5 -5 7 -12 3 -7 -4 -8 -3 -4 5 6 9 11 9 24 -1 13 -12 14 -10 4 9 -15 27 -15
33 -1 33 5 0 8 -4 4 -9 -3 -5 -1 -12 4 -15 5 -4 8 2 6 11 -2 10 -4 18 -5 18
-1 0 -3 10 -6 23 -3 17 -1 21 8 16 9 -6 9 -3 0 9 -8 9 -11 20 -8 25 3 5 -1 21
-9 36 -8 14 -10 24 -6 21 5 -3 11 1 14 9 3 8 -1 17 -10 20 -12 5 -13 9 -3 21
7 8 9 15 5 15 -5 0 0 10 11 22 l19 22 -30 -18 -30 -19 24 27 c14 14 21 26 17
26 -4 0 -2 9 4 20 8 15 8 18 -3 14 -8 -3 -20 2 -27 11 -8 10 -9 15 -1 15 6 0
11 -4 11 -10 0 -5 8 -6 17 -3 11 4 13 8 5 11 -7 2 -9 9 -6 14 4 6 3 9 -2 6 -5
-3 -15 1 -22 8 -12 13 -9 14 15 8 24 -6 26 -5 12 7 -9 8 -19 21 -22 31 -4 12
0 15 18 13 14 -1 22 2 19 6 -3 5 -12 9 -20 9 -8 0 -14 5 -14 11 0 5 -5 7 -12
3 -7 -4 -8 -3 -4 5 6 9 11 9 24 -1 13 -12 14 -10 4 9 -15 27 -15 33 -1 33 5 0
8 -4 4 -9 -3 -5 -1 -12 4 -15 5 -4 8 2 6 11 -2 10 -4 18 -5 18 -1 0 -3 10 -6
23 -3 16 0 21 8 16 7 -4 8 -3 4 5 -4 6 -11 9 -16 6 -5 -3 -12 0 -16 6 -4 7 -3
9 4 5 6 -3 13 -2 17 4 3 5 1 10 -5 10 -7 0 -5 7 4 16 18 17 12 39 -7 27 -8 -4
-7 -1 1 9 9 11 10 18 2 23 -5 3 -10 1 -10 -4 0 -6 -5 -11 -11 -11 -8 0 -8 4 0
14 7 8 22 12 34 10 l22 -5 -21 10 c-12 5 -25 15 -30 22 -4 8 -3 10 4 5 7 -4
12 -2 12 4 0 6 5 8 12 4 7 -4 8 -3 4 5 -4 6 -13 8 -19 4 -7 -4 -6 0 2 10 10
12 10 17 2 17 -8 0 -7 6 3 16 18 17 12 39 -7 27 -8 -4 -7 -1 1 9 9 11 10 18 2
23 -5 3 -10 1 -10 -4 0 -6 -5 -11 -11 -11 -8 0 -8 4 0 14 7 8 22 12 34 10 l22
-5 -21 10 c-12 5 -25 15 -30 22 -4 8 -3 10 4 5 7 -4 12 -2 12 4 0 6 5 8 12 4
7 -4 8 -3 4 5 -4 6 -13 8 -19 4 -7 -4 -5 2 3 12 8 10 10 16 3 12 -6 -4 -14 -3
-17 2 -4 5 5 8 19 7 13 -2 22 1 19 5 -3 5 -12 9 -20 9 -8 0 -14 5 -14 11 0 5
-5 7 -12 3 -7 -4 -8 -3 -4 5 6 9 11 9 24 -1 13 -12 14 -10 4 9 -15 27 -15 33
-1 33 5 0 8 -4 4 -9 -3 -5 -1 -12 4 -15 5 -4 8 2 6 11 -2 10 -4 18 -5 18 -1 0
-3 10 -6 23 -3 17 -1 21 8 16 9 -6 9 -3 0 9 -8 9 -11 20 -8 25 3 5 -1 21 -9
36 -8 14 -10 24 -6 21 5 -3 11 1 14 9 3 8 -1 17 -10 20 -12 5 -13 9 -3 21 7 8
9 15 5 15 -5 0 0 10 11 22 l19 22 -30 -18 -30 -19 24 27 c14 14 21 26 17 26
-4 0 -2 9 4 20 8 15 8 18 -3 14 -8 -3 -20 2 -27 11 -8 10 -9 15 -1 15 6 0 11
-4 11 -10 0 -5 8 -6 17 -3 11 4 13 8 5 11 -7 2 -9 9 -6 14 4 6 3 9 -2 6 -5 -3
-15 1 -22 8 -12 13 -9 14 15 8 24 -6 26 -5 12 7 -9 8 -19 21 -22 31 -4 12 0
15 18 13 14 -1 22 2 19 6 -3 5 -12 9 -20 9 -8 0 -14 5 -14 11 0 5 -5 7 -12 3
-7 -4 -8 -3 -4 5 6 9 11 9 24 -1 13 -12 14 -10 4 9 -15 27 -15 33 -1 33 5 0 8
-4 4 -9 -3 -5 -1 -12 4 -15 5 -4 8 2 6 11 -2 10 -4 18 -5 18 -1 0 -3 10 -6 23
-3 16 0 21 8 16 10 -5 10 -4 1 6 -8 9 -9 19 -2 31 7 15 6 17 -6 13 -11 -5 -14
-2 -8 12 5 13 3 15 -7 9 -9 -5 -11 -4 -6 4 6 9 12 9 24 -1 15 -11 15 -11 6 2
-5 8 -10 29 -9 45 1 32 -14 57 -29 47 -5 -3 -6 0 -2 7 6 9 12 9 24 -1 14 -11
14 -8 -2 16 -10 16 -14 26 -8 22 6 -3 9 2 7 11 -1 10 3 24 9 32 8 11 8 13 -1
7 -8 -4 -13 -2 -13 5 0 8 -4 8 -15 -1 -13 -11 -14 -10 -9 4 3 9 10 16 14 16 4
0 11 7 14 16 6 15 4 15 -11 3 -15 -12 -16 -12 -10 6 l7 20 -16 -20 c-13 -16
-15 -16 -11 -3 3 10 2 20 -3 23 -5 3 -6 13 -3 22 4 11 3 14 -5 9 -11 -6 -17 5
-13 27 0 4 -4 7 -11 7 -9 0 -9 3 0 12 7 7 12 17 12 23 0 5 -4 4 -9 -4 -10 -16
-31 -6 -31 15 0 8 -4 12 -10 9 -5 -3 -10 1 -10 9 0 9 -3 16 -7 16 -5 0 -21 13
-38 28 -40 37 -93 61 -152 68 -26 3 -57 8 -68 9 -11 2 -35 4 -53 4 -24 1 -31
5 -26 14 6 9 5 9 -7 0 -9 -7 -28 -9 -57 -3 -53 9 -54 11 -32 33 17 17 18 17
17 1 -2 -17 3 -18 74 -15 13 1 18 5 13 14 -4 6 -4 9 1 5 4 -4 15 -2 24 5 13
10 12 7 -2 -15 l-17 -28 36 20 c19 11 33 16 29 10 -3 -5 -1 -10 5 -10 6 0 8
-5 4 -12 -6 -10 -5 -10 8 -1 8 7 18 10 22 6 3 -4 13 -8 21 -9 12 -2 13 2 4 19
-11 20 -9 20 16 -3 l28 -25 -13 25 -13 25 22 -19 c22 -20 29 -9 9 14 -11 12
-10 12 3 2 9 -6 20 -8 24 -4 5 4 5 1 1 -5 -4 -8 -1 -13 9 -13 10 0 14 -5 9
-12 -6 -10 -4 -10 7 0 16 15 33 16 23 0 -5 -7 -3 -8 7 -2 8 5 32 10 53 11 21
1 43 6 49 12 6 6 18 4 33 -6 13 -8 24 -12 24 -8 0 4 6 2 14 -4 10 -9 17 -7 27
6 13 16 12 17 -3 5 -11 -9 -18 -10 -23 -2 -3 5 1 10 9 10 25 0 31 -4 28 -17
-4 -16 14 -17 24 -1 4 7 3 8 -4 4 -8 -5 -10 -1 -5 9 3 10 8 13 12 6 4 -6 12
-6 20 -1 9 5 23 3 38 -7 13 -8 23 -12 23 -8 0 4 6 2 14 -4 10 -9 17 -7 27 6
13 16 12 17 -3 5 -11 -9 -18 -10 -23 -2 -3 5 1 10 9 10 25 0 31 -4 28 -17 -4
-16 14 -17 24 -1 4 7 3 8 -4 4 -8 -5 -10 -1 -5 9 3 10 8 13 12 6 4 -6 12 -6
20 -1 9 5 23 3 38 -7 13 -8 23 -12 23 -8 0 4 6 2 14 -4 10 -9 17 -7 27 6 13
16 12 17 -3 5 -11 -9 -18 -10 -23 -2 -3 5 1 10 9 10 25 0 31 -4 28 -17 -4 -16
14 -17 24 -1 4 7 3 8 -4 4 -8 -5 -10 -1 -5 9 3 10 8 13 12 6 4 -6 12 -6 20 -1
9 5 23 3 38 -7 13 -8 23 -12 23 -8 0 4 6 2 14 -4 10 -9 17 -7 27 6 13 16 12
17 -3 5 -11 -9 -18 -10 -23 -2 -5 9 5 12 33 9 4 0 6 -7 4 -15 -3 -17 14 -19
24 -2 4 7 3 8 -4 4 -8 -5 -10 -1 -5 10 5 14 8 13 20 -7 8 -13 12 -16 9 -6 -6
18 -5 19 34 21 14 0 28 5 31 9 3 5 9 2 12 -6 4 -12 0 -14 -19 -11 -13 2 -24 0
-24 -4 0 -5 27 -8 60 -6 44 2 58 -1 53 -9 -4 -7 1 -6 10 2 12 10 17 10 17 2 0
-8 6 -7 16 3 21 21 30 20 13 -1 -12 -16 -12 -17 1 -7 8 6 36 11 63 10 33 -2
47 2 47 11 0 7 5 13 10 13 6 0 10 -7 8 -16 -2 -10 3 -19 10 -21 6 -3 12 0 12
7 0 6 -5 8 -12 4 -7 -4 -8 -3 -4 4 10 16 12 15 36 -10 18 -20 20 -20 14 -4 -5
13 -4 17 4 12 8 -4 10 -2 6 8 -7 18 21 16 39 -4 10 -12 9 -12 -8 0 -17 12 -18
12 -8 0 21 -23 41 -21 36 4 -5 21 -5 21 10 1 8 -11 19 -17 23 -13 4 4 14 2 23
-5 14 -11 14 -10 2 5 -7 10 -17 16 -21 13 -5 -3 -11 -2 -14 3 -2 4 6 8 19 8
13 0 23 -2 23 -5 -1 -4 11 -32 25 -65 15 -32 27 -61 27 -63 0 -5 95 -254 110
-288 15 -34 120 -304 157 -405 19 -52 44 -115 55 -139 11 -24 20 -52 21 -62 1
-11 5 -19 9 -19 4 0 8 -5 8 -10 0 -11 71 -199 97 -258 8 -19 27 -68 43 -110
23 -64 63 -169 110 -287 4 -11 14 -38 23 -60 42 -111 57 -140 73 -144 12 -2
15 2 11 13 -3 8 -2 18 2 20 5 3 7 -12 6 -34 -2 -34 0 -38 12 -29 8 7 12 18 9
26 -3 7 -1 23 4 35 9 23 9 23 7 -2 -1 -14 3 -26 8 -27 6 -2 10 3 10 10 0 6 3
15 8 18 4 3 9 15 12 27 2 12 7 27 11 34 4 6 3 8 -4 4 -9 -5 -10 13 -2 34 1 3
2 10 0 15 -1 6 4 4 11 -2 7 -7 18 -13 24 -13 5 0 4 4 -4 9 -11 7 -11 12 0 32
7 13 13 27 14 31 0 3 3 10 8 14 4 4 7 15 7 25 0 9 6 20 13 22 9 4 9 6 0 6 -14
1 -27 -18 -28 -38 0 -8 -7 -16 -15 -18 -12 -4 -13 -3 -1 5 7 5 11 14 7 20 -3
5 1 15 8 21 8 7 13 23 11 36 -1 13 1 24 4 23 18 -2 31 3 31 12 0 5 -6 8 -12 6
-7 -1 -10 -1 -6 1 4 3 10 3 13 1 6 -4 35 50 35 66 0 6 -6 0 -13 -13 -6 -13
-20 -25 -30 -27 -9 -1 -15 2 -11 7 3 5 9 7 14 4 10 -6 25 33 22 55 -3 13 -2
13 7 0 9 -13 11 -13 11 1 0 8 -6 21 -12 28 -9 10 -9 12 -1 7 6 -3 14 -2 18 4
4 6 12 7 18 3 7 -4 5 2 -3 12 -14 17 -13 18 3 12 15 -6 16 -4 7 14 -6 11 -16
17 -23 13 -7 -4 -8 -3 -4 2 11 12 30 12 39 0 3 -5 5 2 5 17 -2 21 -5 23 -17
14 -13 -11 -13 -10 -1 6 8 10 20 16 27 13 12 -5 13 18 1 30 -4 4 2 14 14 22
16 11 18 17 8 28 -6 8 -9 18 -5 21 4 4 11 1 16 -7 7 -11 9 -10 7 7 0 12 -6 19
-12 15 -5 -3 -4 2 4 11 18 22 7 34 -16 17 -10 -8 -6 -1 10 14 15 15 27 31 27
36 0 5 8 7 18 3 14 -5 13 -3 -3 13 -12 10 -16 15 -9 11 7 -4 15 -3 19 3 3 5 1
10 -4 10 -6 0 -11 4 -11 10 0 5 6 7 14 4 18 -7 30 12 15 22 -8 5 -9 3 -4 -6 5
-8 4 -11 -3 -6 -6 4 -8 14 -5 23 5 12 3 14 -7 8 -9 -5 -11 -4 -6 4 6 9 11 9
24 -1 12 -10 14 -10 8 0 -4 6 -2 12 3 12 6 0 11 5 11 11 0 5 -5 7 -10 4 -12
-7 -8 24 5 45 9 15 14 30 17 63 1 9 6 17 11 17 5 0 7 -6 4 -13 -3 -8 1 -14 9
-14 11 0 10 8 -6 34 -12 20 -14 32 -7 30 7 -1 12 7 12 19 0 11 6 28 12 36 7 8
9 19 5 23 -4 5 -1 5 6 1 7 -4 9 -12 6 -18 -4 -6 2 -6 15 1 11 7 21 10 21 8 0
-11 -74 -223 -79 -227 -3 -3 -6 -9 -6 -15 0 -25 -39 -134 -46 -129 -5 3 -6 -1
-3 -9 4 -11 -28 -113 -63 -197 -3 -8 -7 -22 -8 -30 -8 -43 -112 -329 -119
-323 -4 4 -4 0 -1 -9 4 -9 -5 -45 -19 -80 -14 -36 -26 -70 -26 -76 0 -7 -5
-12 -11 -12 -5 0 -8 -4 -5 -9 5 -8 -53 -182 -339 -1025 -30 -87 -52 -162 -49
-167 2 -4 18 -6 34 -4 18 2 30 -1 31 -8 1 -7 2 -19 3 -27 0 -8 11 -16 23 -16
12 -1 20 3 17 7 -7 12 3 11 29 -3 21 -10 21 -10 7 7 -14 17 -13 17 5 8 15 -8
23 -8 32 2 6 7 10 14 8 16 -2 2 32 4 76 3 62 0 79 3 75 13 -3 7 -1 13 5 13 6
0 8 4 4 9 -3 6 4 8 16 6 13 -3 26 -10 31 -17 13 -21 10 9 -3 35 l-12 22 20
-20 c11 -11 18 -24 15 -30 -4 -5 6 -2 21 8 17 11 27 13 27 6 0 -8 4 -8 15 1
10 8 13 21 9 34 -6 21 -6 21 11 1 14 -17 16 -17 11 -2 -3 9 -1 17 4 17 6 0 10
-4 10 -8 0 -10 55 -10 65 -1 3 4 -6 5 -20 4 -14 -2 -28 2 -32 7 -3 7 -1 8 5 4
7 -4 12 -1 12 6 0 10 2 10 8 1 6 -10 12 -9 28 3 17 14 17 15 1 10 -11 -4 -16
-2 -12 5 4 6 14 8 22 5 9 -4 21 -2 28 4 9 8 17 6 29 -5 19 -19 22 -5 4 14 -11
11 -9 11 9 2 27 -14 44 -14 21 0 -10 5 -18 15 -18 22 0 7 4 6 10 -3 5 -8 10
-11 10 -6 0 5 6 3 14 -3 10 -9 16 -8 26 4 7 9 19 14 27 11 9 -4 11 -1 7 6 -5
8 -2 9 9 5 9 -3 19 -1 23 5 4 7 3 8 -4 4 -7 -4 -12 -2 -12 4 0 6 -11 4 -27 -6
-26 -15 -26 -15 -8 0 11 9 29 24 39 32 18 15 19 15 13 0 -4 -9 -2 -16 3 -16 6
0 10 5 10 11 0 6 13 8 30 5 17 -2 28 0 24 5 -3 5 -10 7 -15 4 -5 -4 -9 1 -9
10 0 13 4 14 23 4 20 -11 21 -11 8 5 -8 9 -11 19 -7 23 3 3 6 1 6 -5 0 -7 5
-12 11 -12 6 0 9 6 6 13 -3 8 0 14 7 14 14 0 5 -127 -14 -196 -30 -110 -93
-142 -312 -156 -124 -8 -127 -9 -125 -48 1 -18 8 -33 15 -33 6 -1 14 -3 17 -4
3 -1 8 -3 13 -4 4 -1 18 -8 32 -16 14 -8 30 -14 35 -15 6 0 10 -6 10 -12 0 -7
5 -12 10 -11 6 2 9 7 7 11 -1 5 3 7 10 4 7 -2 12 -10 11 -16 -2 -6 2 -11 8
-11 6 0 8 10 5 23 -3 12 -3 16 0 10 3 -7 12 -13 20 -13 9 0 13 -4 9 -9 -3 -5
-2 -12 3 -15 4 -2 9 4 9 15 1 10 -3 19 -9 19 -6 0 -9 2 -6 5 6 7 66 -18 64
-27 -1 -3 3 -10 7 -15 5 -4 8 -3 7 2 -5 23 1 46 10 40 5 -3 7 -13 4 -23 -4
-10 -3 -13 3 -6 11 15 43 25 43 15 0 -5 -6 -11 -12 -14 -7 -2 2 -4 20 -3 17 0
32 5 32 11 0 5 5 3 10 -5 6 -10 10 -11 10 -2 0 7 13 12 31 12 28 0 30 2 18 17
-13 17 -13 17 6 1 15 -13 24 -14 39 -6 14 8 17 7 12 -1 -4 -6 -2 -11 4 -11 6
0 8 -5 4 -12 -5 -7 -3 -8 5 -4 7 5 10 14 7 22 -3 8 -1 14 4 14 9 0 15 -22 11
-43 -1 -5 3 -6 8 -2 6 3 8 12 5 20 -4 10 0 12 15 8 11 -3 18 -10 14 -16 -3 -6
-1 -7 5 -3 6 4 9 14 6 24 -4 10 -2 13 3 7 10 -13 57 -20 50 -7 -4 5 0 9 8 9 8
0 13 -3 11 -6 -2 -3 5 -15 16 -26 19 -20 19 -20 9 8 -7 17 -7 27 -1 27 6 0 10
-6 10 -14 0 -8 4 -18 10 -21 6 -4 7 1 3 12 -5 14 0 13 23 -7 16 -14 23 -18 17
-10 -14 16 -17 31 -5 29 4 -1 9 0 12 1 3 1 22 3 43 5 34 2 37 0 32 -19 -5 -17
-4 -18 4 -6 10 13 11 13 11 0 0 -13 1 -13 10 0 8 13 10 13 10 1 0 -12 2 -12
13 1 13 17 71 20 96 4 10 -7 12 -6 6 4 -6 10 -4 12 9 7 10 -4 20 -7 22 -7 3 0
2 -5 -2 -12 -5 -7 -3 -8 5 -4 7 5 10 14 7 22 -3 8 -1 14 4 14 6 0 11 -4 11
-10 1 -5 2 -14 3 -19 0 -5 4 -13 8 -17 4 -3 6 3 3 14 -2 12 1 25 7 28 7 4 8 2
4 -4 -4 -7 -2 -12 4 -12 6 0 8 -5 4 -12 -5 -7 -3 -8 5 -4 7 5 10 14 7 22 -3 8
-1 14 4 14 6 0 10 -9 10 -19 0 -11 4 -22 9 -25 5 -4 7 3 4 14 -4 16 -2 19 13
14 11 -4 26 -13 35 -21 13 -11 16 -11 16 2 0 8 -5 11 -10 8 -6 -4 -7 -1 -2 7
5 9 4 11 -3 6 -17 -10 -15 -1 4 14 12 11 15 11 12 0 -2 -8 6 -16 16 -18 14 -3
17 0 13 12 -9 23 0 20 14 -5 8 -15 8 -19 0 -15 -16 10 -14 1 3 -13 12 -10 14
-9 11 6 -4 27 4 34 25 21 15 -10 22 -10 32 0 19 19 30 14 23 -10 -5 -18 -4
-20 4 -8 10 13 11 13 11 0 0 -13 1 -13 10 0 8 13 10 13 10 1 0 -12 2 -12 13 1
7 9 25 15 42 14 17 -1 38 2 49 7 13 6 16 6 12 -2 -4 -6 -2 -11 4 -11 6 0 8 -5
4 -12 -5 -7 -3 -8 5 -4 7 5 10 14 7 22 -3 8 -1 14 4 14 9 0 15 -22 11 -43 -1
-5 3 -6 8 -2 6 3 8 12 5 20 -4 10 0 12 15 8 11 -3 18 -10 14 -16 -3 -6 -1 -7
5 -3 6 4 9 14 6 24 -4 10 -2 13 3 7 10 -13 57 -20 50 -7 -4 5 0 9 8 9 8 0 13
-3 11 -6 -2 -3 5 -15 16 -26 19 -20 19 -20 9 8 -7 17 -7 27 -1 27 6 0 10 -6
10 -14 0 -8 4 -18 10 -21 6 -4 7 1 3 12 -5 14 0 13 23 -7 16 -14 23 -18 17
-10 -14 16 -17 31 -5 29 4 -1 9 0 12 1 14 6 120 6 120 0 0 -4 -10 -7 -22 -6
-11 0 -22 -5 -24 -12 -2 -8 0 -8 3 -1 4 8 8 7 14 -2 7 -12 9 -11 9 1 0 13 1
13 10 0 9 -13 10 -13 10 0 0 12 2 12 9 2 7 -11 9 -10 14 3 5 10 3 14 -5 9 -7
-4 -8 -3 -4 4 13 21 28 13 21 -10 -5 -18 -4 -20 4 -8 10 13 11 13 11 0 0 -13
1 -13 10 0 9 13 10 13 10 0 1 -9 6 -6 16 10 l15 25 -5 -25 c-4 -21 -3 -22 7
-10 7 8 21 15 32 14 11 0 25 2 30 5 17 9 35 10 40 1 3 -5 -4 -7 -15 -5 -17 3
-19 1 -10 -16 12 -22 22 -26 14 -4 -4 10 0 13 15 10 15 -3 18 0 14 13 -6 15
-5 15 11 3 19 -16 30 -8 41 29 7 23 7 24 -10 10 -17 -14 -17 -13 -7 6 12 22 7
34 -12 34 -6 0 -5 -4 2 -9 11 -7 11 -9 0 -14 -10 -3 -15 4 -16 26 -2 17 -4 32
-5 33 -1 1 -51 5 -112 9 -151 9 -275 41 -259 67 4 6 3 8 -2 5 -14 -8 -31 5
-36 28 -1 11 -10 26 -18 33 -13 10 -13 11 3 6 12 -4 17 -1 17 11 0 9 -4 14 -9
11 -5 -3 -9 5 -8 18 0 18 4 23 16 19 13 -4 14 -3 1 5 -10 8 -18 8 -27 0 -10
-8 -12 -7 -7 6 6 15 18 20 38 17 5 -1 4 5 -4 13 -10 13 -10 19 1 33 13 16 12
17 -3 4 -19 -14 -19 -14 -22 32 -1 12 -8 21 -15 19 -7 -1 -10 2 -6 8 5 8 11 8
20 0 10 -8 15 -8 21 1 4 8 3 9 -4 5 -7 -4 -12 -1 -12 9 0 10 -5 13 -12 9 -10
-6 -10 -5 -1 8 7 8 9 19 5 23 -4 5 -2 5 5 1 6 -3 15 -2 18 4 4 6 1 9 -6 8 -6
-2 -14 3 -17 11 -2 8 0 11 6 7 6 -3 14 -1 18 5 4 7 3 9 -3 6 -9 -6 -19 5 -21
23 0 3 -5 17 -11 32 -7 19 -7 29 1 34 7 4 8 3 4 -4 -4 -7 -2 -12 4 -12 6 0 8
-5 5 -10 -3 -5 -1 -10 5 -10 7 0 9 8 5 20 -4 12 -1 29 6 38 11 14 11 15 -1 4
-8 -6 -17 -12 -21 -12 -9 0 -2 46 10 69 5 9 6 22 4 29 -3 6 0 12 7 12 6 0 8 5
4 11 -4 8 -9 7 -15 -2 -7 -12 -10 -12 -21 0 -7 8 -8 11 -2 8 7 -4 14 0 18 8 3
8 1 15 -5 15 -6 0 -5 8 2 21 15 29 18 68 6 76 -6 3 -7 1 -3 -5 4 -7 2 -12 -4
-12 -7 0 -10 6 -7 14 3 7 0 20 -6 27 -10 11 -9 11 6 0 14 -11 17 -11 17 3 0 9
5 16 11 16 5 0 7 5 3 11 -3 6 -9 7 -13 3 -3 -5 -12 -10 -20 -12 -10 -2 -12 1
-5 10 6 7 9 23 8 35 -1 17 3 20 20 18 20 -4 20 -4 2 10 -10 8 -24 12 -30 8 -6
-3 0 7 14 23 14 15 17 23 8 15 -15 -11 -17 -10 -15 7 1 13 6 18 16 14 9 -3 12
-1 7 6 -4 7 -2 12 4 12 6 0 8 5 4 11 -3 6 -9 7 -13 3 -3 -5 -12 -10 -20 -12
-10 -2 -12 1 -5 10 6 7 9 23 8 35 -1 17 3 20 20 18 20 -4 20 -4 2 10 -10 8
-24 12 -30 8 -6 -3 0 7 14 23 15 17 17 23 6 14 -17 -13 -19 -13 -14 0 3 8 1
23 -3 32 -6 11 -5 19 3 24 7 4 8 3 4 -4 -4 -7 -2 -12 4 -12 6 0 8 -5 5 -10 -3
-5 -1 -10 5 -10 7 0 9 8 5 20 -4 12 -1 29 6 38 11 14 11 15 -1 4 -8 -6 -17
-12 -21 -12 -9 0 -2 46 10 69 5 9 6 22 4 29 -3 6 0 12 7 12 6 0 8 5 4 11 -4 8
-9 7 -15 -2 -7 -12 -10 -12 -21 0 -7 8 -8 11 -2 8 7 -4 14 0 18 8 3 8 1 15 -5
15 -6 0 -5 8 2 21 15 29 18 68 6 76 -6 3 -7 1 -3 -5 4 -7 2 -12 -4 -12 -7 0
-10 6 -7 14 3 7 0 20 -6 27 -10 11 -9 11 6 0 14 -11 17 -11 17 3 0 9 5 16 11
16 5 0 7 5 3 11 -3 6 -9 7 -13 3 -3 -5 -12 -10 -20 -12 -10 -2 -12 1 -5 10 6
7 9 23 8 35 -1 17 3 20 20 18 20 -4 20 -4 2 10 -10 8 -24 12 -30 8 -6 -3 0 7
14 23 14 15 17 23 8 15 -15 -11 -17 -10 -15 7 1 13 6 18 16 14 9 -3 12 -1 7 6
-4 7 -2 12 4 12 6 0 8 5 4 11 -3 6 -9 7 -13 3 -3 -5 -12 -10 -20 -12 -10 -2
-12 1 -5 10 6 7 9 23 8 35 -1 17 3 20 20 18 20 -4 20 -4 2 10 -10 8 -24 12
-30 8 -6 -3 0 7 14 23 15 17 17 23 6 14 -17 -13 -19 -13 -14 0 3 8 1 23 -3 32
-6 11 -5 19 3 24 7 4 8 3 4 -4 -4 -7 -2 -12 4 -12 6 0 8 -4 5 -10 -3 -5 -1
-10 5 -10 7 0 9 8 5 20 -4 12 -1 29 6 38 11 14 11 15 -1 5 -8 -7 -17 -13 -21
-13 -9 0 -2 46 10 69 5 9 6 22 4 29 -3 6 0 12 7 12 6 0 8 5 4 11 -4 8 -9 7
-15 -2 -7 -12 -10 -12 -21 0 -7 8 -8 11 -2 8 7 -4 14 0 18 8 3 8 1 15 -5 15
-6 0 -5 8 2 21 15 29 18 68 6 76 -6 3 -7 1 -3 -5 4 -7 2 -12 -4 -12 -7 0 -10
6 -7 14 3 7 0 20 -6 27 -10 11 -9 11 6 0 14 -11 17 -11 17 3 0 9 5 16 11 16 5
0 7 5 3 11 -3 6 -9 7 -13 3 -3 -5 -12 -10 -20 -12 -10 -2 -12 1 -5 10 6 7 9
23 8 35 -1 17 3 20 20 18 20 -4 20 -4 2 10 -10 8 -24 12 -30 8 -6 -3 0 7 14
23 14 15 17 23 8 15 -15 -11 -17 -10 -15 7 1 13 6 18 16 14 9 -3 12 -1 7 6 -4
7 -2 12 4 12 6 0 8 5 4 11 -3 6 -9 7 -13 3 -3 -5 -12 -10 -20 -12 -10 -2 -12
1 -5 10 6 7 9 23 8 35 -1 17 3 20 20 18 20 -4 20 -4 2 10 -10 8 -24 12 -30 8
-6 -3 0 7 14 23 16 18 18 23 6 14 -18 -13 -19 -13 -14 1 3 9 2 22 -2 30 -5 7
-5 18 -1 24 4 5 7 17 6 25 -1 8 4 29 10 45 7 17 10 36 8 43 -3 6 0 12 7 12 6
0 8 5 4 11 -4 8 -9 7 -15 -2 -7 -12 -10 -12 -21 0 -7 8 -8 11 -2 8 13 -7 29
20 25 42 -1 8 2 10 10 5 8 -4 10 -3 5 5 -6 9 -11 9 -21 1 -10 -8 -13 -5 -11
14 1 17 4 21 13 15 19 -17 27 11 8 29 -10 10 -15 11 -11 5 4 -7 2 -13 -3 -13
-18 0 -12 13 16 38 16 13 23 21 16 17 -7 -3 -17 4 -24 16 -10 19 -9 21 5 16
23 -9 20 1 -6 24 -13 11 -18 19 -13 18 22 -3 25 2 15 22 -11 19 -10 20 9 10
17 -10 20 -9 15 4 -4 8 -10 15 -15 15 -5 0 -9 5 -9 12 0 6 3 9 6 5 3 -3 12 0
19 6 10 10 9 14 -9 25 -20 12 -20 12 -1 11 34 -2 38 0 24 18 -12 15 -12 16 3
11 12 -5 16 -1 13 18 -1 13 3 24 9 23 21 -3 36 1 35 9 -5 27 1 32 24 21 20
-11 21 -11 8 4 -12 15 -11 17 3 17 9 0 16 -5 16 -11 0 -6 7 -3 16 5 8 9 13 20
10 25 -3 5 2 7 13 4 10 -3 22 0 25 6 4 6 12 11 18 11 6 0 5 -7 -3 -17 -13 -16
-12 -16 14 0 28 18 53 15 41 -5 -5 -7 -2 -8 5 -4 7 5 10 15 7 23 -3 8 -2 12 3
8 5 -3 11 -2 14 2 2 5 3 3 1 -3 -4 -16 29 -12 44 6 11 13 11 13 7 0 -4 -11 2
-15 19 -15 13 0 22 5 20 10 -3 6 9 11 26 11 16 1 30 -3 30 -8 0 -5 -4 -7 -8
-4 -5 3 -9 -2 -9 -11 0 -13 3 -13 16 4 9 11 23 17 30 15 8 -3 11 0 7 7 -5 7
-1 9 10 4 14 -5 13 -8 -7 -19 -30 -17 -19 -18 16 -2 27 12 32 24 13 31 -10 4
-9 6 1 6 8 1 20 -7 27 -16 12 -16 12 -16 7 6 -4 17 -3 22 5 17 7 -4 12 -2 12
4 0 7 -8 9 -22 4 -21 -6 -22 -5 -8 11 14 16 13 17 -7 11 -19 -6 -23 -2 -31 26
l-8 33 -422 0 c-232 0 -422 2 -422 6 0 3 -11 4 -24 2 -13 -3 -27 1 -31 7 -5 9
-1 10 16 6 13 -3 18 -3 12 0 -7 3 -13 12 -13 20 0 8 -11 19 -24 24 -19 7 -23
14 -19 31 4 14 2 20 -4 16 -6 -4 -17 8 -24 26 -7 17 -20 37 -29 44 -8 6 -12
14 -8 18 3 4 -2 15 -13 26 -16 16 -24 42 -21 70 1 3 -6 6 -14 6 -10 0 -11 -4
-4 -11 5 -5 10 -15 10 -20 0 -6 -11 6 -25 26 -14 20 -25 41 -25 46 0 6 -7 13
-16 16 -9 4 -14 13 -10 22 3 8 2 13 -2 10 -12 -7 -88 86 -84 102 2 8 -1 11 -7
7 -6 -3 -15 3 -19 15 -4 12 -12 21 -17 19 -12 -2 -44 53 -37 65 3 5 0 6 -7 2
-6 -4 -8 -13 -5 -19 4 -7 -2 -3 -13 8 -11 11 -19 23 -16 28 2 4 -1 7 -7 7 -6
0 -8 5 -4 12 4 6 3 8 -3 5 -5 -3 -16 2 -25 11 -8 9 -34 32 -57 50 -22 19 -39
38 -35 43 3 5 -3 6 -12 2 -11 -4 -15 -2 -11 4 4 6 0 13 -8 17 -19 7 -169 118
-173 129 -2 4 -8 7 -14 7 -5 0 -29 14 -53 30 -24 17 -48 30 -53 30 -6 0 -12 4
-14 8 -4 9 -208 111 -294 146 -74 30 -268 90 -344 105 -151 31 -207 38 -350
47 -58 3 -110 7 -117 9 -6 2 -13 2 -15 1z m1417 -1318 c5 4 5 1 1 -5 -4 -8 -1
-13 9 -13 10 0 14 -5 9 -12 -6 -10 -4 -10 7 0 16 15 33 16 23 0 -5 -7 -3 -8 7
-2 18 11 91 15 85 5 -3 -4 1 -8 9 -8 13 0 13 2 0 17 -13 14 -12 16 5 16 10 0
16 -4 14 -8 -5 -7 4 -10 22 -7 4 0 11 -5 16 -13 8 -10 9 -10 5 2 -2 8 -10 14
-16 13 -6 -2 -11 2 -11 7 0 15 16 12 30 -5 7 -9 19 -14 25 -11 7 2 17 0 23 -6
14 -14 54 13 47 32 -4 13 -4 13 8 0 17 -20 38 -24 49 -8 6 9 7 6 3 -9 -3 -12
-1 -24 4 -28 7 -4 8 1 4 11 -4 12 -3 15 5 10 8 -4 10 -2 6 8 -7 18 21 16 39
-4 10 -12 9 -12 -8 0 -17 12 -18 12 -8 0 21 -23 41 -21 36 4 -4 19 -3 19 7 4
6 -10 16 -18 22 -18 6 0 5 7 -3 17 -13 15 -12 15 8 3 12 -8 19 -19 15 -25 -3
-5 1 -4 10 3 11 9 18 9 21 2 3 -6 4 -5 3 2 -2 7 -9 12 -15 10 -6 -1 -11 2 -11
8 0 13 6 13 30 -2 17 -11 22 -10 31 2 9 13 10 13 6 -2 -4 -12 0 -15 19 -13 28
3 34 -9 84 -150 41 -115 66 -207 86 -310 18 -94 18 -100 31 -205 14 -121 5
-512 -12 -540 -2 -3 -6 -26 -10 -50 -31 -226 -144 -533 -275 -753 -138 -232
-364 -489 -548 -626 -88 -65 -99 -69 -99 -47 0 8 6 12 13 9 16 -6 27 14 13 23
-8 5 -9 3 -4 -6 5 -8 4 -11 -3 -6 -10 6 -7 49 4 67 6 10 -7 40 -15 35 -10 -7
-7 81 3 91 6 5 6 2 1 -7 -8 -13 -6 -13 8 -2 13 11 14 17 5 32 -7 10 -16 16
-20 14 -4 -3 -8 0 -8 5 0 6 10 11 23 11 17 0 19 2 7 9 -8 6 -18 7 -24 4 -5 -3
-6 -1 -2 6 4 6 11 9 15 6 5 -2 6 6 4 19 -3 13 0 27 6 30 14 9 14 26 0 26 -5 0
-8 -4 -5 -9 10 -15 -18 -31 -34 -20 -12 8 -11 9 5 7 21 -3 23 8 11 74 -2 16 1
31 6 35 7 4 8 1 3 -8 -8 -12 -6 -12 8 -1 13 11 14 17 5 32 -7 10 -16 16 -20
14 -4 -3 -8 0 -8 5 0 6 10 11 23 11 17 0 19 2 7 9 -8 6 -18 7 -24 4 -5 -3 -6
-1 -2 6 4 6 11 9 15 6 5 -2 6 6 4 19 -3 13 0 27 6 30 14 9 14 26 0 26 -5 0 -8
-4 -5 -9 10 -15 -18 -31 -34 -20 -12 8 -11 9 5 7 21 -3 23 8 11 74 -2 16 1 31
6 35 7 4 8 1 3 -8 -8 -12 -6 -12 8 -1 13 11 14 17 5 32 -7 10 -15 17 -18 15
-3 -2 -6 5 -7 15 -1 11 2 22 8 25 5 3 6 -1 3 -9 -4 -11 0 -16 12 -16 11 0 15
3 9 8 -16 11 -20 76 -4 67 8 -5 10 -4 5 4 -4 6 -10 9 -14 7 -4 -2 -7 13 -8 35
0 32 2 36 15 26 12 -10 12 -9 1 10 -8 12 -16 20 -20 18 -3 -2 -5 10 -5 25 -1
16 3 26 7 24 5 -3 6 -9 3 -14 -3 -5 0 -12 6 -16 8 -4 9 -3 5 4 -4 7 -1 12 6
13 10 0 10 2 1 6 -7 2 -13 9 -13 14 0 6 5 7 12 3 7 -4 8 -3 4 5 -4 6 -10 9
-14 7 -4 -2 -7 13 -8 35 0 32 2 36 15 26 12 -10 12 -9 1 10 -8 12 -17 20 -20
18 -9 -6 -6 83 4 92 6 5 6 2 1 -7 -8 -13 -6 -13 8 -2 13 11 14 17 5 32 -7 10
-16 16 -20 14 -4 -3 -8 0 -8 5 0 6 10 11 23 11 17 0 19 2 7 9 -8 6 -18 7 -24
4 -5 -3 -6 -1 -2 6 4 6 11 9 15 6 5 -2 6 6 4 19 -3 13 0 27 6 30 14 9 14 26 0
26 -5 0 -8 -4 -5 -9 3 -5 -1 -14 -8 -20 -10 -9 -16 -9 -21 -1 -4 6 -1 9 7 8
13 -3 14 16 4 74 -2 16 1 31 6 35 7 4 8 1 3 -8 -8 -12 -6 -12 9 0 12 10 14 17
6 25 -14 14 -13 29 3 20 9 -6 9 -5 0 7 -18 22 -24 72 -10 81 8 5 6 8 -6 8 -10
0 -15 5 -12 10 4 6 10 8 15 5 4 -3 14 3 21 13 12 15 12 16 -1 5 -14 -10 -16
-4 -18 48 -1 41 2 59 10 59 9 0 9 3 0 12 -16 16 -16 52 0 42 7 -4 8 -3 4 4 -4
6 -13 9 -21 5 -17 -6 -21 12 -5 22 14 9 1 27 -13 18 -7 -3 -4 3 6 14 19 22 23
38 5 27 -7 -4 -8 -3 -4 5 4 6 17 9 29 6 12 -2 16 -2 9 1 -6 3 -10 10 -7 14 3
5 0 12 -6 16 -7 4 -9 3 -6 -3 3 -5 0 -10 -8 -10 -11 0 -12 4 -4 14 6 7 8 20 5
29 -5 13 -4 14 7 6 10 -9 14 -8 14 3 0 13 -9 19 -28 17 -3 -1 -6 6 -6 13 0 10
4 12 12 5 9 -7 16 -5 25 5 11 13 10 14 -2 10 -8 -3 -20 0 -26 8 -9 11 -8 14 3
14 8 0 12 -4 9 -9 -3 -4 2 -5 11 -2 14 6 14 8 -2 20 -16 12 -16 15 -3 24 8 5
10 10 4 10 -13 0 -12 65 0 77 4 4 5 -7 1 -24 -3 -18 -1 -35 5 -38 6 -4 7 1 3
11 -5 13 -3 15 8 9 11 -6 12 -5 2 5 -10 11 -9 16 5 27 9 7 13 13 7 12 -22 -3
-27 2 -15 16 8 10 9 19 3 28 -13 16 -13 49 0 65 7 9 7 16 -1 24 -9 9 -8 15 1
26 9 12 9 16 0 19 -7 3 -13 12 -13 21 -1 10 -9 -1 -20 -23 l-19 -40 2 69 c2
76 -11 95 -33 49 -7 -16 -13 -31 -12 -35 1 -6 -31 -105 -45 -138 -3 -8 -7 -22
-9 -30 -10 -51 -28 -99 -35 -94 -5 3 -8 -3 -7 -13 4 -30 -25 -122 -40 -128
-22 -8 -27 2 -11 22 8 9 9 14 3 10 -6 -3 -11 0 -11 7 0 8 6 12 13 9 6 -2 15 1
20 8 4 8 3 10 -4 5 -7 -4 -12 -2 -12 3 0 6 5 11 12 11 6 0 3 6 -8 14 -19 14
-19 15 1 13 12 -1 21 5 23 17 3 11 0 16 -7 11 -6 -3 -8 -11 -5 -17 5 -7 2 -8
-5 -4 -9 6 -9 12 3 25 9 10 13 21 9 26 -5 4 -2 5 5 1 6 -4 12 -3 12 3 0 5 -3
11 -7 14 -5 2 -3 2 4 1 20 -5 25 14 6 19 -13 3 -10 5 7 6 20 1 22 3 10 11 -10
6 -11 10 -2 10 6 0 12 5 12 10 0 7 -7 7 -22 0 l-23 -11 21 18 c12 10 20 26 19
35 -2 10 0 17 3 17 20 -3 32 2 27 11 -4 6 -11 7 -17 4 -7 -4 -8 -2 -4 5 4 6
11 9 16 6 4 -3 10 2 13 10 4 10 1 12 -11 9 -14 -5 -14 -4 -3 4 12 9 13 13 1
27 -11 14 -11 16 1 13 8 -2 13 3 11 10 -1 8 2 11 8 7 10 -6 14 7 11 34 -2 7 2
10 8 6 6 -3 11 1 11 9 0 9 -4 16 -10 16 -5 0 -10 5 -10 11 0 8 4 8 14 0 9 -7
17 -8 20 -2 3 5 0 11 -6 14 -10 3 -10 7 -1 18 6 8 12 16 12 19 3 19 27 70 33
70 4 0 5 7 1 16 -5 14 -3 15 15 5 12 -7 22 -9 22 -7 0 3 -12 12 -27 20 -19 10
-23 15 -11 16 23 0 34 20 17 31 -10 6 -7 9 11 10 14 0 19 3 12 6 -6 2 -10 9
-7 13 3 5 12 7 19 4 8 -3 16 -1 20 4 3 5 -8 8 -24 7 -16 -1 -27 2 -24 7 4 5
12 7 20 4 7 -3 16 0 20 6 4 7 3 8 -4 4 -7 -4 -12 -2 -12 4 0 6 -5 8 -12 4 -7
-4 -8 -3 -4 4 4 6 14 8 23 5 11 -5 14 -3 8 6 -6 10 -3 11 15 1 21 -11 22 -10
16 6 -5 13 2 10 25 -11 l32 -30 -23 35 c-14 19 -17 29 -9 23 9 -7 20 -9 24 -5z
m-2971 -14 c3 -8 2 -12 -4 -9 -6 3 -10 10 -10 16 0 14 7 11 14 -7z m136 10 c0
-8 -19 -13 -24 -6 -3 5 1 9 9 9 8 0 15 -2 15 -3z m934 -3 c-8 -8 -34 -10 -38
-2 -3 4 6 7 19 7 14 0 22 -2 19 -5z m100 0 c-7 -8 -54 -9 -59 -2 -2 4 12 7 30
7 19 0 32 -3 29 -5z m1846 3 c0 -8 -19 -13 -24 -6 -3 5 1 9 9 9 8 0 15 -2 15
-3z m250 -5 c0 -15 -21 -21 -34 -10 -7 6 -17 7 -21 3 -5 -4 -6 -2 -2 4 6 11
57 14 57 3z m310 1 c0 -5 -4 -10 -10 -10 -5 0 -10 5 -10 10 0 6 5 10 10 10 6
0 10 -4 10 -10z m540 -120 c0 -5 -2 -10 -4 -10 -3 0 -8 5 -11 10 -3 6 -1 10 4
10 6 0 11 -4 11 -10z m-80 -35 c0 -8 -4 -15 -10 -15 -5 0 -7 7 -4 15 4 8 8 15
10 15 2 0 4 -7 4 -15z m-1179 -278 c-7 -7 -7 -16 0 -29 5 -10 8 -18 7 -19 -43
-11 -73 0 -47 17 8 5 9 3 4 -6 -5 -8 -3 -11 6 -8 7 2 14 18 15 34 2 37 2 37
15 28 7 -4 8 -9 0 -17z m1099 -2 c10 -12 10 -15 -2 -15 -8 0 -15 7 -15 15 0 8
1 15 2 15 2 0 8 -7 15 -15z m-3613 -75 c-1 -10 -5 -17 -9 -14 -4 3 -4 12 -1
21 5 12 3 14 -7 8 -9 -5 -11 -4 -6 4 10 16 25 4 23 -19z m2508 1 c3 -5 2 -12
-3 -15 -5 -3 -9 1 -9 9 0 17 3 19 12 6z m10 -51 c0 -7 -7 -16 -15 -18 -13 -4
-13 -3 -2 10 9 11 9 18 2 21 -6 3 -5 4 2 3 7 -2 13 -9 13 -16z m-2518 -45 c0
-8 -4 -12 -9 -9 -4 3 -8 9 -8 15 0 5 4 9 8 9 5 0 9 -7 9 -15z m3608 -36 c-4
-5 -12 -9 -18 -8 -9 0 -8 2 1 6 6 2 9 10 6 15 -4 7 -2 8 5 4 6 -4 9 -12 6 -17z
m-3618 -4 c0 -8 -4 -12 -9 -9 -5 3 -6 10 -3 15 9 13 12 11 12 -6z m198 -84 c3
-5 2 -12 -3 -15 -5 -3 -9 1 -9 9 0 17 3 19 12 6z m42 -87 c-3 -3 -12 -4 -19
-1 -8 3 -5 6 6 6 11 1 17 -2 13 -5z m-230 -68 c0 -8 -6 -12 -15 -9 -11 5 -11
7 0 14 7 5 13 9 14 9 0 0 1 -6 1 -14z m274 -33 c13 -16 12 -17 -3 -4 -14 11
-18 11 -18 1 0 -8 -3 -11 -6 -7 -5 5 3 27 10 27 2 0 10 -8 17 -17z m2219 -85
c0 -19 -16 -5 -17 14 -2 18 0 20 7 8 5 -8 10 -18 10 -22z m-2503 -62 c-3 -7 0
-20 6 -27 10 -11 9 -11 -5 0 -15 11 -15 41 -1 41 3 0 3 -6 0 -14z m2499 -31
c-1 -8 -5 -17 -8 -21 -5 -4 -4 16 1 34 3 9 9 -1 7 -13z m-2499 -30 c0 -8 -4
-12 -9 -9 -5 3 -6 10 -3 15 9 13 12 11 12 -6z m3618 -36 c-4 -5 -12 -9 -18 -8
-9 0 -8 2 1 6 6 2 9 10 6 15 -4 7 -2 8 5 4 6 -4 9 -12 6 -17z m-1120 -68 c3
-5 0 -13 -6 -17 -7 -4 -9 -3 -5 4 3 5 0 13 -6 15 -9 4 -10 6 -1 6 6 1 14 -3
18 -8z m-397 -23 c-2 -7 3 -12 10 -10 8 1 11 -2 7 -8 -5 -8 -11 -8 -21 1 -7 6
-11 15 -8 20 8 13 14 11 12 -3z m407 -18 c3 -6 -1 -7 -9 -4 -18 7 -21 14 -7
14 6 0 13 -4 16 -10z m1110 -11 c-4 -5 -12 -9 -18 -8 -9 0 -8 2 1 6 6 2 9 10
6 15 -4 7 -2 8 5 4 6 -4 9 -12 6 -17z m-3595 -74 c0 -2 -10 -9 -22 -15 -22
-11 -22 -10 -4 4 21 17 26 19 26 11z m2485 -155 c3 -6 -1 -7 -9 -4 -18 7 -21
14 -7 14 6 0 13 -4 16 -10z m-2485 -5 c0 -2 -10 -9 -22 -15 -22 -11 -22 -10
-4 4 21 17 26 19 26 11z m-23 -90 c0 -8 -4 -12 -9 -9 -5 3 -6 10 -3 15 9 13
12 11 12 -6z m553 5 c0 -5 -2 -10 -4 -10 -3 0 -8 5 -11 10 -3 6 -1 10 4 10 6
0 11 -4 11 -10z m1410 -114 c0 -3 -4 -8 -10 -11 -5 -3 -10 -1 -10 4 0 6 5 11
10 11 6 0 10 -2 10 -4z m-1340 -69 c0 -16 -18 3 -23 25 -6 22 -5 22 8 4 8 -11
15 -24 15 -29z m2995 -18 c-4 -5 -12 -9 -18 -8 -9 0 -8 2 1 6 6 2 9 10 6 15
-4 7 -2 8 5 4 6 -4 9 -12 6 -17z m-3608 -43 c0 -8 -6 -12 -15 -9 -11 5 -11 7
0 14 7 5 13 9 14 9 0 0 1 -6 1 -14z m1903 -10 c0 -3 -4 -8 -10 -11 -5 -3 -10
-1 -10 4 0 6 5 11 10 11 6 0 10 -2 10 -4z m-1251 -30 c9 -11 9 -16 -1 -22 -7
-4 -10 -4 -6 1 4 4 3 14 -3 22 -6 7 -9 13 -6 13 2 0 10 -6 16 -14z m2956 -37
c-4 -5 -12 -9 -18 -8 -9 0 -8 2 1 6 6 2 9 10 6 15 -4 7 -2 8 5 4 6 -4 9 -12 6
-17z m-1110 -69 c3 -6 -1 -7 -9 -4 -18 7 -21 14 -7 14 6 0 13 -4 16 -10z
m-2508 -34 c-3 -7 0 -20 6 -27 10 -11 9 -11 -5 0 -15 11 -15 41 -1 41 3 0 3
-6 0 -14z m0 -61 c0 -8 -4 -12 -9 -9 -5 3 -6 10 -3 15 9 13 12 11 12 -6z m768
-35 c3 -6 -1 -7 -9 -4 -18 7 -21 14 -7 14 6 0 13 -4 16 -10z m1740 -110 c3 -6
-1 -7 -9 -4 -18 7 -21 14 -7 14 6 0 13 -4 16 -10z m-2498 -94 c0 -8 -6 -12
-15 -9 -11 5 -11 7 0 14 7 5 13 9 14 9 0 0 1 -6 1 -14z m3608 -117 c-4 -5 -12
-9 -18 -8 -9 0 -8 2 1 6 6 2 9 10 6 15 -4 7 -2 8 5 4 6 -4 9 -12 6 -17z
m-1110 -29 c3 -6 -1 -7 -9 -4 -18 7 -21 14 -7 14 6 0 13 -4 16 -10z m-2514
-43 c-10 -9 -11 -8 -5 6 3 10 9 15 12 12 3 -3 0 -11 -7 -18z m936 -49 c-3 -8
-6 -5 -6 6 -1 11 2 17 5 13 3 -3 4 -12 1 -19z m2688 1 c-4 -5 -12 -9 -18 -8
-9 0 -8 2 1 6 6 2 9 10 6 15 -4 7 -2 8 5 4 6 -4 9 -12 6 -17z m-3615 -33 c0
-3 -4 -8 -10 -11 -5 -3 -10 -1 -10 4 0 6 5 11 10 11 6 0 10 -2 10 -4z m960
-22 c0 -8 -19 -13 -24 -6 -3 5 1 9 9 9 8 0 15 -2 15 -3z m2640 -124 c0 -5 -2
-10 -4 -10 -3 0 -8 5 -11 10 -3 6 -1 10 4 10 6 0 11 -4 11 -10z m-3504 -81 c3
-6 1 -16 -6 -22 -10 -9 -11 -9 -6 0 3 6 -2 16 -11 22 -16 9 -16 10 -1 11 9 0
20 -5 24 -11z m144 -84 c11 -13 10 -14 -4 -9 -9 3 -16 10 -16 15 0 13 6 11 20
-6z m3384 -23 c3 -5 -1 -9 -9 -9 -8 0 -12 4 -9 9 3 4 7 8 9 8 2 0 6 -4 9 -8z
m-1354 -6 c0 -3 -4 -8 -10 -11 -5 -3 -10 -1 -10 4 0 6 5 11 10 11 6 0 10 -2
10 -4z m-254 -108 c5 -8 2 -9 -9 -5 -9 3 -19 2 -22 -3 -8 -13 -25 -13 -25 1 0
5 4 8 9 4 5 -3 12 -1 16 5 8 13 22 13 31 -2z m-153 -41 c3 -8 -3 -13 -18 -13
-13 0 -21 4 -19 8 3 5 10 6 15 3 5 -4 9 -1 9 4 0 15 7 14 13 -2z m-986 -42 c0
-8 -4 -15 -9 -15 -10 0 -11 14 -1 23 9 10 10 9 10 -8z m183 -19 c0 -3 -4 -8
-10 -11 -5 -3 -10 -1 -10 4 0 6 5 11 10 11 6 0 10 -2 10 -4z m24 -12 c3 -8 2
-12 -4 -9 -6 3 -10 10 -10 16 0 14 7 11 14 -7z m441 -14 c3 -6 -1 -7 -9 -4
-18 7 -21 14 -7 14 6 0 13 -4 16 -10z m715 -94 c0 -2 -8 -10 -17 -17 -16 -13
-17 -12 -4 4 13 16 21 21 21 13z m-769 -39 c-10 -9 -11 -8 -5 6 3 10 9 15 12
12 3 -3 0 -11 -7 -18z m-1491 5 c0 -5 -7 -9 -15 -9 -8 0 -12 4 -9 9 3 4 9 8
15 8 5 0 9 -4 9 -8z m647 -14 c-3 -8 -6 -5 -6 6 -1 11 2 17 5 13 3 -3 4 -12 1
-19z m750 9 c-2 -6 -13 -11 -25 -10 -31 1 -34 2 -29 11 8 12 58 11 54 -1z m43
5 c0 -13 -12 -22 -22 -16 -10 6 -1 24 13 24 5 0 9 -4 9 -8z m960 -2 c0 -5 -9
-7 -20 -5 -11 2 -20 -1 -20 -7 0 -6 -3 -9 -6 -5 -3 3 -4 9 -1 14 7 12 47 14
47 3z m480 2 c0 -5 -7 -9 -15 -9 -8 0 -12 4 -9 9 3 4 9 8 15 8 5 0 9 -4 9 -8z
m480 0 c0 -5 -7 -9 -15 -9 -8 0 -12 4 -9 9 3 4 9 8 15 8 5 0 9 -4 9 -8z m560
0 c0 -5 -7 -9 -15 -9 -8 0 -12 4 -9 9 3 4 9 8 15 8 5 0 9 -4 9 -8z"/>
<path d="M3995 3660 c-2 -3 5 -7 16 -7 10 -1 19 2 19 6 0 9 -29 10 -35 1z"/>
<path d="M3537 3475 c-4 -8 -1 -17 6 -21 7 -4 9 -4 5 1 -4 4 -3 14 3 22 7 8 8
13 1 13 -5 0 -12 -7 -15 -15z"/>
<path d="M3515 3440 c-3 -5 -1 -10 4 -10 6 0 11 5 11 10 0 6 -2 10 -4 10 -3 0
-8 -4 -11 -10z"/>
<path d="M3505 3410 c-3 -6 1 -7 9 -4 18 7 21 14 7 14 -6 0 -13 -4 -16 -10z"/>
<path d="M3461 3286 c-9 -11 -9 -16 1 -22 7 -4 10 -4 6 1 -4 4 -3 14 3 22 6 7
9 13 6 13 -2 0 -10 -6 -16 -14z"/>
<path d="M3551 2796 c-9 -10 -9 -16 -1 -21 6 -4 14 -4 17 -1 4 3 0 6 -8 6 -12
0 -12 2 1 10 8 5 12 12 9 15 -4 3 -12 -1 -18 -9z"/>
<path d="M3545 2750 c-3 -6 1 -7 9 -4 18 7 21 14 7 14 -6 0 -13 -4 -16 -10z"/>
<path d="M3553 2495 c0 -8 4 -12 9 -9 5 3 6 10 3 15 -9 13 -12 11 -12 -6z"/>
<path d="M3553 2373 c-20 -7 -15 -21 10 -33 20 -10 20 -10 5 3 -13 10 -15 16
-6 25 13 13 11 14 -9 5z"/>
<path d="M3553 2132 c-13 -8 -12 -37 2 -49 4 -4 5 -3 2 4 -4 6 -1 14 5 16 10
4 9 6 -1 6 -11 1 -11 4 -1 16 14 16 11 19 -7 7z"/>
<path d="M3555 2000 c-3 -5 -1 -10 4 -10 6 0 11 5 11 10 0 6 -2 10 -4 10 -3 0
-8 -4 -11 -10z"/>
<path d="M3555 1840 c-3 -5 -1 -10 4 -10 6 0 11 5 11 10 0 6 -2 10 -4 10 -3 0
-8 -4 -11 -10z"/>
<path d="M3553 1653 c-20 -7 -15 -21 10 -33 20 -10 20 -10 5 3 -13 10 -15 16
-6 25 13 13 11 14 -9 5z"/>
<path d="M3553 1413 c-20 -7 -15 -21 10 -33 20 -10 20 -10 5 3 -13 10 -15 16
-6 25 13 13 11 14 -9 5z"/>
<path d="M3553 1172 c-13 -8 -12 -37 2 -49 4 -4 5 -3 2 4 -4 6 -1 14 5 16 10
4 9 6 -1 6 -11 1 -11 4 -1 16 14 16 11 19 -7 7z"/>
<path d="M3555 1040 c-3 -5 -1 -10 4 -10 6 0 11 5 11 10 0 6 -2 10 -4 10 -3 0
-8 -4 -11 -10z"/>
<path d="M3920 4280 c0 -5 5 -10 11 -10 5 0 7 5 4 10 -3 6 -8 10 -11 10 -2 0
-4 -4 -4 -10z"/>
<path d="M4046 4142 c-3 -5 1 -9 9 -9 8 0 12 4 9 9 -3 4 -7 8 -9 8 -2 0 -6 -4
-9 -8z"/>
<path d="M4100 4061 c0 -6 4 -13 10 -16 6 -3 7 1 4 9 -7 18 -14 21 -14 7z"/>
<path d="M4170 3971 c0 -6 4 -13 10 -16 6 -3 7 1 4 9 -7 18 -14 21 -14 7z"/>
<path d="M4220 3883 c0 -6 8 -17 18 -24 16 -13 16 -13 2 6 -8 11 -16 22 -17
24 -2 2 -3 0 -3 -6z"/>
<path d="M966 3663 c-6 -14 -5 -15 5 -6 7 7 10 15 7 18 -3 3 -9 -2 -12 -12z"/>
<path d="M1130 3671 c0 -7 -4 -9 -10 -6 -5 3 -10 1 -10 -4 0 -6 4 -11 9 -11
13 0 25 20 17 27 -3 4 -6 1 -6 -6z"/>
<path d="M1290 3671 c0 -7 -4 -9 -10 -6 -5 3 -10 1 -10 -4 0 -6 4 -11 9 -11
13 0 25 20 17 27 -3 4 -6 1 -6 -6z"/>
<path d="M1450 3671 c0 -7 -4 -9 -10 -6 -5 3 -10 1 -10 -4 0 -6 4 -11 9 -11
13 0 25 20 17 27 -3 4 -6 1 -6 -6z"/>
<path d="M1611 3664 c0 -11 3 -14 6 -6 3 7 2 16 -1 19 -3 4 -6 -2 -5 -13z"/>
<path d="M640 3660 c-9 -6 -10 -10 -3 -10 6 0 15 5 18 10 8 12 4 12 -15 0z"/>
<path d="M995 3440 c-3 -5 -1 -10 4 -10 6 0 11 5 11 10 0 6 -2 10 -4 10 -3 0
-8 -4 -11 -10z"/>
<path d="M4690 3320 c0 -5 5 -10 11 -10 5 0 7 5 4 10 -3 6 -8 10 -11 10 -2 0
-4 -4 -4 -10z"/>
<path d="M1175 3090 c3 -5 8 -10 11 -10 2 0 4 5 4 10 0 6 -5 10 -11 10 -5 0
-7 -4 -4 -10z"/>
<path d="M4666 2993 c-6 -14 -5 -15 5 -6 7 7 10 15 7 18 -3 3 -9 -2 -12 -12z"/>
<path d="M4666 2955 c-10 -15 -12 -25 -6 -25 6 0 8 -4 5 -10 -3 -5 -1 -10 5
-10 7 0 9 7 6 16 -3 8 -1 24 4 35 15 27 5 23 -14 -6z"/>
<path d="M1260 2926 c0 -2 7 -7 16 -10 8 -3 12 -2 9 4 -6 10 -25 14 -25 6z"/>
<path d="M3305 2870 c-3 -5 -3 -15 0 -20 4 -6 1 -17 -5 -25 -9 -11 -9 -15 -1
-15 6 0 11 5 11 11 0 5 4 8 8 5 5 -3 9 1 9 9 0 8 -4 15 -8 15 -5 0 -6 7 -3 15
7 17 -1 20 -11 5z"/>
<path d="M1300 2846 c0 -2 8 -10 18 -17 15 -13 16 -12 3 4 -13 16 -21 21 -21
13z"/>
<path d="M1062 2735 c4 -4 3 -14 -3 -22 -7 -8 -8 -13 -1 -13 15 0 23 28 9 36
-7 4 -9 4 -5 -1z"/>
<path d="M3261 2706 c-9 -11 -8 -15 4 -20 10 -4 14 -2 9 5 -4 6 0 15 7 20 8 5
9 9 3 9 -6 0 -17 -6 -23 -14z"/>
<path d="M1400 2580 c-9 -6 -10 -10 -3 -10 6 0 15 5 18 10 8 12 4 12 -15 0z"/>
<path d="M1430 2539 c0 -5 5 -7 10 -4 6 3 10 8 10 11 0 2 -4 4 -10 4 -5 0 -10
-5 -10 -11z"/>
<path d="M3197 2515 c-4 -8 -3 -16 1 -19 4 -3 9 4 9 15 2 23 -3 25 -10 4z"/>
<path d="M4666 2353 c-6 -14 -5 -15 5 -6 7 7 10 15 7 18 -3 3 -9 -2 -12 -12z"/>
<path d="M2970 1886 c0 -2 7 -7 16 -10 8 -3 12 -2 9 4 -6 10 -25 14 -25 6z"/>
<path d="M1062 1775 c4 -4 3 -14 -3 -22 -7 -8 -8 -13 -1 -13 15 0 23 28 9 36
-7 4 -9 4 -5 -1z"/>
<path d="M1740 1721 c0 -5 7 -12 16 -15 14 -5 15 -4 4 9 -14 17 -20 19 -20 6z"/>
<path d="M4666 1713 c-6 -14 -5 -15 5 -6 7 7 10 15 7 18 -3 3 -9 -2 -12 -12z"/>
<path d="M1765 1680 c-3 -5 -1 -10 4 -10 6 0 11 5 11 10 0 6 -2 10 -4 10 -3 0
-8 -4 -11 -10z"/>
<path d="M1860 1441 c15 -30 30 -35 17 -6 -7 14 -16 25 -20 25 -4 0 -3 -9 3
-19z"/>
<path d="M1062 1295 c4 -4 3 -14 -3 -22 -7 -8 -8 -13 -1 -13 15 0 23 28 9 36
-7 4 -9 4 -5 -1z"/>
<path d="M676 1207 c3 -10 9 -15 12 -12 3 3 0 11 -7 18 -10 9 -11 8 -5 -6z"/>
<path d="M4666 1073 c-6 -14 -5 -15 5 -6 7 7 10 15 7 18 -3 3 -9 -2 -12 -12z"/>
<path d="M2036 1012 c-2 -4 -1 -14 4 -22 7 -11 9 -9 7 8 -1 24 -3 26 -11 14z"/>
<path d="M4666 972 c-3 -5 1 -9 9 -9 8 0 12 4 9 9 -3 4 -7 8 -9 8 -2 0 -6 -4
-9 -8z"/>
<path d="M1057 955 c-4 -8 -3 -16 1 -19 4 -3 9 4 9 15 2 23 -3 25 -10 4z"/>
<path d="M2057 949 c7 -7 15 -10 18 -7 3 3 -2 9 -12 12 -14 6 -15 5 -6 -5z"/>
<path d="M2070 900 c0 -5 5 -10 10 -10 6 0 10 5 10 10 0 6 -4 10 -10 10 -5 0
-10 -4 -10 -10z"/>
<path d="M3207 696 c-21 -16 -22 -23 -2 -23 8 0 12 4 9 8 -2 4 2 9 8 12 7 2
11 7 8 10 -3 3 -13 0 -23 -7z"/>
<path d="M4696 605 c4 -8 10 -15 15 -15 4 0 6 7 3 15 -4 8 -10 15 -15 15 -4 0
-6 -7 -3 -15z"/>
<path d="M2190 601 c0 -5 7 -11 14 -14 10 -4 13 -1 9 9 -6 15 -23 19 -23 5z"/>
<path d="M2945 599 c-4 -6 -5 -12 -2 -15 2 -3 7 2 10 11 7 17 1 20 -8 4z"/>
<path d="M2628 563 c7 -3 16 -2 19 1 4 3 -2 6 -13 5 -11 0 -14 -3 -6 -6z"/>
<path d="M2839 553 c-12 -16 -12 -17 2 -6 9 7 20 9 24 5 5 -4 5 -1 1 6 -9 16
-11 15 -27 -5z"/>
<path d="M2780 550 c-8 -5 -12 -12 -9 -15 4 -3 12 1 19 10 14 17 11 19 -10 5z"/>
<path d="M2610 546 c0 -2 12 -12 28 -21 l27 -18 -19 21 c-17 20 -36 29 -36 18z"/>
<path d="M2605 481 c-3 -5 -2 -12 3 -15 5 -3 9 1 9 9 0 17 -3 19 -12 6z"/>
<path d="M3079 408 c-6 -26 -6 -37 2 -32 5 3 12 -2 15 -11 5 -13 8 -14 15 -3
7 10 11 9 21 -5 13 -17 14 -17 14 2 0 11 -2 18 -5 16 -2 -3 -17 5 -32 16 -16
11 -29 19 -30 17z m22 -25 c13 -16 12 -17 -3 -4 -17 13 -22 21 -14 21 2 0 10
-8 17 -17z"/>
<path d="M577 362 c4 -10 8 -11 13 -2 6 9 9 9 12 -1 3 -10 6 -9 10 2 4 11 -1
15 -17 15 -15 0 -21 -5 -18 -14z"/>
<path d="M625 362 c-5 -13 -4 -14 6 -5 10 10 15 9 24 -3 9 -13 11 -13 11 3 0
24 -32 27 -41 5z"/>
<path d="M736 371 c-4 -5 -2 -12 3 -15 5 -4 12 -2 15 3 4 5 2 12 -3 15 -5 4
-12 2 -15 -3z"/>
<path d="M914 368 c-3 -4 -4 -8 -2 -9 36 -8 57 -5 62 8 5 13 4 14 -9 3 -8 -7
-15 -8 -15 -3 0 12 -29 13 -36 1z"/>
<path d="M3794 368 c-3 -4 -4 -8 -2 -9 36 -8 57 -5 62 8 5 13 4 14 -9 3 -8 -7
-15 -8 -15 -3 0 12 -29 13 -36 1z"/>
<path d="M4276 367 c3 -10 9 -15 12 -12 3 3 0 11 -7 18 -10 9 -11 8 -5 -6z"/>
<path d="M4320 365 c-7 -9 -8 -15 -2 -15 5 0 12 7 16 15 3 8 4 15 2 15 -2 0
-9 -7 -16 -15z"/>
<path d="M4754 368 c-3 -4 -4 -8 -2 -9 36 -8 57 -5 62 8 5 13 4 14 -9 3 -8 -7
-15 -8 -15 -3 0 12 -29 13 -36 1z"/>
<path d="M1045 360 c-5 -8 62 -7 69 1 3 2 -11 5 -30 5 -20 0 -37 -3 -39 -6z"/>
<path d="M3484 358 c-3 -4 5 -5 17 -3 30 6 36 14 9 12 -12 -1 -24 -5 -26 -9z"/>
<path d="M3636 353 c-6 -14 -5 -15 5 -6 7 7 10 15 7 18 -3 3 -9 -2 -12 -12z"/>
<path d="M3675 360 c-3 -5 -1 -10 4 -10 6 0 11 5 11 10 0 6 -2 10 -4 10 -3 0
-8 -4 -11 -10z"/>
<path d="M3925 360 c-5 -8 62 -7 69 1 3 2 -11 5 -30 5 -20 0 -37 -3 -39 -6z"/>
<path d="M4404 359 c-4 -7 74 -4 81 3 3 3 -13 5 -36 4 -22 -1 -43 -4 -45 -7z"/>
<path d="M4596 353 c-6 -14 -5 -15 5 -6 7 7 10 15 7 18 -3 3 -9 -2 -12 -12z"/>
<path d="M4635 360 c-3 -5 -1 -10 4 -10 6 0 11 5 11 10 0 6 -2 10 -4 10 -3 0
-8 -4 -11 -10z"/>
<path d="M5016 358 c3 -5 10 -6 15 -3 13 9 11 12 -6 12 -8 0 -12 -4 -9 -9z"/>
</g>
</svg>
