<?xml version="1.0" encoding="UTF-8" standalone="no"?>
<!-- Created with Inkscape (http://www.inkscape.org/) -->

<svg
   width="367.23645mm"
   height="327.52179mm"
   viewBox="0 0 367.23646 327.5218"
   version="1.1"
   id="svg5"
   inkscape:version="1.1.2 (b8e25be833, 2022-02-05)"
   sodipodi:docname="mmbmlogo2.svg"
   xmlns:inkscape="http://www.inkscape.org/namespaces/inkscape"
   xmlns:sodipodi="http://sodipodi.sourceforge.net/DTD/sodipodi-0.dtd"
   xmlns="http://www.w3.org/2000/svg"
   xmlns:svg="http://www.w3.org/2000/svg">
  <sodipodi:namedview
     id="namedview7"
     pagecolor="#505050"
     bordercolor="#eeeeee"
     borderopacity="1"
     inkscape:pageshadow="0"
     inkscape:pageopacity="0"
     inkscape:pagecheckerboard="0"
     inkscape:document-units="mm"
     showgrid="true"
     inkscape:zoom="0.5499273"
     inkscape:cx="791.01365"
     inkscape:cy="608.26222"
     inkscape:window-width="2115"
     inkscape:window-height="1082"
     inkscape:window-x="425"
     inkscape:window-y="113"
     inkscape:window-maximized="0"
     inkscape:current-layer="layer1"
     fit-margin-top="0"
     fit-margin-left="0"
     fit-margin-right="0"
     fit-margin-bottom="0">
    <sodipodi:guide
       position="86.025142,294.29206"
       orientation="0,793.70079"
       id="guide950" />
    <sodipodi:guide
       position="296.02514,294.29206"
       orientation="1122.5197,0"
       id="guide952" />
    <sodipodi:guide
       position="296.02514,-2.7079445"
       orientation="0,-793.70079"
       id="guide954" />
    <sodipodi:guide
       position="86.025142,-2.7079445"
       orientation="-1122.5197,0"
       id="guide956" />
    <inkscape:grid
       type="xygrid"
       id="grid958"
       color="#000000"
       opacity="0.1254902"
       empcolor="#000000"
       empopacity="0.25098039"
       dotted="false"
       originx="86.025149"
       originy="33.229732" />
  </sodipodi:namedview>
  <defs
     id="defs2" />
  <g
     inkscape:label="Layer 1"
     inkscape:groupmode="layer"
     id="layer1"
     transform="translate(86.025133,33.229734)">
    <path
       id="path846"
       style="fill:#dc1414;stroke-width:0.639757;fill-opacity:1"
       d="M 72.833956,-33.229734 A 158.85894,158.85894 0 0 0 -86.025133,125.62937 158.85894,158.85894 0 0 0 -17.019711,256.61638 l 0.292237,-7.014 V 99.33672 L -17.374363,84.4402 C -18.885642,79.258666 -21.261537,74.94034 -24.5,71.485984 c -3.022571,-3.454356 -6.799852,-5.505955 -11.333708,-6.153655 -4.317955,-0.6477 -8.636265,-1.079542 -12.954219,-1.295431 -4.317955,-0.215731 -7.555865,-0.430985 -9.714841,-0.646874 V 58.208331 H 61.319634 L 115.72573,198.75748 164.62664,58.208331 h 52.04839 A 158.85894,158.85894 0 0 0 72.833956,-33.229734 Z M 216.67503,58.208331 a 158.85894,158.85894 0 0 1 15.01801,67.421039 158.85894,158.85894 0 0 1 -70.79996,132.15434 l -0.47614,10.92489 c -0.6477,7.34055 -2.05074,12.1982 -4.20969,14.57308 -2.15899,2.37488 -6.69238,3.99467 -13.60113,4.85826 l -14.89817,0.97034 v 5.18169 h 147.6748 v -5.18169 l -16.19196,-1.29543 c -6.69282,-0.86359 -11.22624,-2.58928 -13.60112,-5.18004 -2.15895,-2.80669 -3.56365,-7.66438 -4.21132,-14.57309 l -0.6469,-14.89817 V 99.660189 l 0.6469,-14.896552 c 0.64767,-6.908712 2.26746,-11.766396 4.85823,-14.573084 2.59077,-2.806656 7.23335,-4.641541 13.92621,-5.50513 6.90871,-0.863588 11.44213,-1.295399 13.60109,-1.295399 h 7.44743 v -5.181693 z m -55.78195,199.575379 0.17252,-3.97163 v -120.1475 c 0,-6.69282 0.21509,-14.57331 0.6469,-23.64104 0.64767,-9.28359 1.29626,-17.918555 1.94393,-25.906777 H 161.7125 L 148.43482,125.89206 94.997434,282.88437 A 158.85894,158.85894 0 0 0 160.8932,257.78371 Z m -65.895773,25.10066 a 158.85894,158.85894 0 0 1 -22.163351,1.6041 158.85894,158.85894 0 0 1 -5.840074,-0.21828 l 4.042248,10.02188 H 91.11435 Z M 66.993882,284.2701 -7.982953,98.364758 H -9.9269067 V 249.60238 l 0.492558,11.81971 A 158.85894,158.85894 0 0 0 66.993882,284.2701 Z M -9.4343487,261.42209 a 158.85894,158.85894 0 0 1 -7.5853623,-4.80571 l -0.354646,8.52939 c -0.647687,6.69286 -2.591748,11.87483 -5.830212,15.54508 -3.022571,3.67024 -7.231691,5.93697 -12.629133,6.80056 -5.397449,0.6477 -10.040038,1.07951 -13.926197,1.29543 -3.670258,0 -7.123267,0.10771 -10.361731,0.32344 v 5.18169 h 93.267082 v -5.18169 l -22.66906,-1.61887 c -6.6928318,-0.86359 -11.5505157,-3.02274 -14.5730867,-6.47712 -2.8066657,-3.67025 -4.5339898,-8.95978 -5.1816863,-15.86852 z" />
  </g>
</svg>
